<?xml version="1.0" encoding="utf-8"?>
<svg id="Bubble02" image-rendering="auto" baseProfile="basic" version="1.1" x="0px" y="0px" width="170" height="140" xmlns="http://www.w3.org/2000/svg" xmlns:xlink="http://www.w3.org/1999/xlink">
  <defs>
    <filter id="filter11" filterUnits="objectBoundingBox" width="100%" height="100%" x="0%" y="0%">
      <feColorMatrix type="matrix" in="SourceGraphic" result="colorTrans" values="1 0 0 0 0 0 1 0 0 0 0 0 1 0 0 0 0 0 0 0"/>
    </filter>
    <g id="tab" overflow="visible">
      <path fill="#FFF" stroke="none" d="M22.75 -35.5Q17.5 -35.5 11.3 -35.8L6.15 -36.15Q4.1 -36.25 3.1 -34.35 1.2 -26.1 .8 -24.85 .6 -24.25 .6 -23.5L0 -4.35Q0 -2.55 1.3 -1.25 2.6 0 4.4 0L41.85 0Q43.65 0 44.95 -1.25 46.25 -2.55 46.25 -4.35L45.65 -23.5Q45.65 -24.2 45.55 -24.5L43.4 -34.15Q43 -35.1 42.15 -35.65 41.25 -36.2 40.25 -36.15 31.1 -35.5 22.75 -35.5Z"/>
      <path id="Layer27_0_1_STROKES" stroke="#273C4F" stroke-width="3" stroke-linejoin="miter" stroke-linecap="butt" stroke-miterlimit="10" fill="none" d="M43.4 -34.15Q43 -35.1 42.15 -35.65 41.25 -36.2 40.25 -36.15 31.1 -35.5 22.75 -35.5 17.5 -35.5 11.3 -35.8L6.15 -36.15Q4.1 -36.25 3.1 -34.35 1.2 -26.1 .8 -24.85 .6 -24.25 .6 -23.5L0 -4.35Q0 -2.55 1.3 -1.25 2.6 0 4.4 0L41.85 0Q43.65 0 44.95 -1.25 46.25 -2.55 46.25 -4.35L45.65 -23.5Q45.65 -24.2 45.55 -24.5L43.4 -34.15Z"/>
      <path fill="#273C4F" stroke="none" d="M11.1 -14.2L6.2 -14.5 5.55 -14.6Q4.35 -14.8 3.5 -15.85 3.15 -16.35 3.1 -16.9L2.85 -28.4 2.7 -16.85Q2.75 -16.3 3.2 -15.6 4.05 -14.5 5.45 -14.2L6.15 -14.05 11.1 -13.75Q17.85 -13.4 23.25 -13.4 28.65 -13.4 35.45 -13.75L40.35 -14.05 41.05 -14.2Q42.45 -14.5 43.3 -15.6 43.75 -16.15 43.8 -16.85L43.65 -28.4 43.4 -16.9Q43.3 -16.25 43 -15.85 42.2 -14.85 40.95 -14.6L35.4 -14.2Q27.7 -13.9 23.25 -13.9 16.95 -13.9 11.1 -14.2Z"/>
      <path id="Layer29_0_1_STROKES" stroke="#273C4F" stroke-width=".5" stroke-linejoin="round" stroke-linecap="round" fill="none" d="M42.7 -13.45L44 -3"/>
      <path id="Layer30_0_1_STROKES" stroke="#273C4F" stroke-width=".5" stroke-linejoin="round" stroke-linecap="round" fill="none" d="M4 -13.45L2.65 -3"/>
      <path fill="#273C4F" stroke="none" d="M15.7 -29.7L7.1 -29.7 7.1 -28.7 10.45 -28.7 10.45 -22.9 12.3 -22.9 12.3 -28.7 15.7 -28.7 15.7 -29.7Z"/>
      <path fill="#273C4F" stroke="none" d="M21.65 -26.55Q21.65 -27.3 20.65 -27.65 19.8 -28 18.55 -28 15.25 -28 15.05 -26.35L16.75 -26.35Q16.9 -27.1 18.45 -27.1 20.05 -27.1 20.05 -26.45 20.05 -26.05 19.35 -25.9 18.35 -25.8 17.75 -25.75 14.8 -25.55 14.8 -24.25 14.8 -23.55 15.6 -23.15 16.3 -22.8 17.4 -22.8 18.85 -22.7 20.1 -23.4 20.25 -22.8 21.4 -22.8L22.45 -22.9 22.45 -23.65 22.05 -23.65Q21.65 -23.65 21.65 -24L21.65 -26.55M17.85 -25.1Q18.9 -25.1 19.95 -25.4L19.95 -24.6Q19.95 -23.65 18.05 -23.65 16.5 -23.65 16.5 -24.25 16.5 -24.9 17.85 -25.1Z"/>
      <path fill="#273C4F" stroke="none" d="M25.2 -29.7L23.5 -29.7 23.5 -22.95 25.1 -22.95 25.1 -23.6 25.15 -23.6Q26.25 -22.65 27.8 -22.8 29.4 -22.8 30.3 -23.6 31.1 -24.3 31.1 -25.35 31.1 -26.5 30.2 -27.2 29.25 -28 27.5 -28 26.2 -28 25.25 -27.2L25.2 -27.2 25.2 -29.7M25.15 -25.4Q25.15 -27.1 27.3 -27.1 28.3 -27.1 28.9 -26.55 29.4 -26.1 29.4 -25.4 29.4 -23.65 27.3 -23.65 26.3 -23.65 25.7 -24.15 25.15 -24.65 25.15 -25.4Z"/>
    </g>
    <g id="shadow" overflow="visible">
      <g id="help_01.svg_Layer-1_Path-579279" transform="translate(0 -13.7)" opacity=".38">
        <path fill="#000" stroke="none" d="M46.2 2.4Q46.2 1.4 44.95 .7 43.65 0 41.85 0L4.4 0Q2.6 0 1.3 .7 0 1.4 0 2.4L0 11.35Q0 12.35 1.3 13 2.55 13.7 4.4 13.7L41.85 13.7Q43.65 13.7 44.95 13 46.2 12.35 46.2 11.35L46.2 2.4Z"/>
      </g>
    </g>
    <g id="ball" overflow="visible">
      <path fill="#273B4F" stroke="none" d="M7.1 -1.2Q8.3 -2.4 8.3 -4.15 8.3 -5.85 7.1 -7.05 5.85 -8.3 4.15 -8.3 2.45 -8.3 1.25 -7.05 0 -5.85 0 -4.15 0 -2.4 1.25 -1.2 2.45 0 4.15 0 5.85 0 7.1 -1.2Z"/>
    </g>
    <g id="help_01.svg_Layer-1_Discover-nested-elements-using:-" overflow="visible"/>
  </defs>
  <g id="Scene-1" overflow="visible">
    <g display="none">
      <g id="bubble1o430d437" transform="matrix(.091 0 0 .091 3.95 137.4)">
        <animateTransform attributeName="transform" additive="replace" type="translate" repeatCount="indefinite" dur="14.567s" keyTimes="0;.984;.998;1" values="4.004,137.35;4.004,137.35;4,137.4;4,137.4"/>
        <animateTransform attributeName="transform" additive="sum" type="scale" repeatCount="indefinite" dur="14.567s" keyTimes="0;.984;.998;1" values=".091,.091;.091,.091;1,1;1,1"/>
        <animateTransform attributeName="transform" additive="sum" type="translate" repeatCount="indefinite" dur="14.567s" keyTimes="0;.984;.998;1" values="-1.15,0;-1.15,0;-.25,1.1;-.25,1.1"/>
        <g display="none" id="Layer25_0_FILL">
          <path fill="#000" fill-opacity=".2" stroke="none" d="M161.15 -128.5Q158.85 -130.85 155.5 -130.85L22.5 -130.85Q19.2 -130.85 16.85 -128.5 14.5 -126.15 14.5 -122.85L14.5 -19.85Q14.5 -18.7 6.95 -9.6 -.6 -.55 .05 -.05 .65 .4 11.2 -5.7 21.75 -11.85 22.5 -11.85L155.5 -11.85Q158.85 -11.85 161.15 -14.2 163.5 -16.55 163.5 -19.85L163.5 -122.85Q163.5 -126.15 161.15 -128.5Z"/>
          <animate attributeName="display" repeatCount="indefinite" dur="14.567s" keyTimes="0;.984;1" values="none;inline;inline"/>
        </g>
        <g display="none" id="Layer24_0_FILL">
          <path fill="#000" fill-opacity=".2" stroke="none" d="M160.2 -129.5Q157.9 -131.85 154.55 -131.85L21.55 -131.85Q18.25 -131.85 15.9 -129.5 13.55 -127.15 13.55 -123.85L13.55 -20.85Q13.55 -19.7 6.45 -10.15 -.7 -.65 .05 -.05 .75 .5 10.8 -6.15 20.8 -12.85 21.55 -12.85L154.55 -12.85Q157.9 -12.85 160.2 -15.2 162.55 -17.55 162.55 -20.85L162.55 -123.85Q162.55 -127.15 160.2 -129.5Z"/>
          <animate attributeName="display" repeatCount="indefinite" dur="14.567s" keyTimes="0;.984;1" values="none;inline;inline"/>
        </g>
        <g display="none" id="Layer23_0_FILL">
          <path fill="#000" fill-opacity=".2" stroke="none" d="M159.15 -130.5Q156.85 -132.85 153.5 -132.85L20.5 -132.85Q17.2 -132.85 14.85 -130.5 12.5 -128.15 12.5 -124.85L12.5 -21.85Q12.5 -20.7 5.75 -10.55 -.65 -.85 .2 -.15 1.1 .5 10.25 -6.55 19.75 -13.85 20.5 -13.85L153.5 -13.85Q156.85 -13.85 159.15 -16.2 161.5 -18.55 161.5 -21.85L161.5 -124.85Q161.5 -128.15 159.15 -130.5Z"/>
          <animate attributeName="display" repeatCount="indefinite" dur="14.567s" keyTimes="0;.984;1" values="none;inline;inline"/>
        </g>
        <g display="none" id="Layer22_0_FILL">
          <path fill="#40B4B9" stroke="none" d="M158.2 -131.8Q155.9 -134.15 152.55 -134.15L19.55 -134.15Q16.25 -134.15 13.9 -131.8 11.55 -129.45 11.55 -126.15L11.55 -23.15Q11.55 -22.05 5.25 -11.2 -.75 -.9 .1 -.2 1 .45 9.75 -7.2 18.75 -15.15 19.55 -15.15L152.55 -15.15Q155.9 -15.15 158.2 -17.5 160.55 -19.85 160.55 -23.15L160.55 -126.15Q160.55 -129.45 158.2 -131.8Z"/>
          <animate attributeName="display" repeatCount="indefinite" dur="14.567s" keyTimes="0;.984;1" values="none;inline;inline"/>
        </g>
        <g display="none">
          <use xlink:href="#help_01.svg_Layer-1_Discover-nested-elements-using:-" transform="translate(32.3 -124.5)"/>
          <use xlink:href="#help_01.svg_Layer-1_Discover-nested-elements-using:-" transform="translate(76.9 -71.5)"/>
          <animate attributeName="display" repeatCount="indefinite" dur="14.567s" keyTimes="0;.984;1" values="none;inline;inline"/>
        </g>
        <g display="none" id="Layer21_0_FILL">
          <path fill="#FFF" stroke="none" d="M90.25 -68.55Q90.25 -68.65 90.1 -68.65 88.6 -68.65 87.55 -67.4 87.55 -68 87.4 -68.35 87.35 -68.5 87.25 -68.5L85.7 -68.5Q85.65 -68.5 85.65 -68.4 85.7 -67.75 85.7 -66.25L85.7 -60.7Q85.7 -60.6 85.85 -60.6L87.5 -60.6Q87.65 -60.6 87.65 -60.7L87.65 -65.9Q87.95 -66.25 88.6 -66.5 89.3 -66.75 90.1 -66.7 90.25 -66.7 90.25 -66.85L90.25 -68.55M137.3 -94Q138.5 -94 138.5 -95.2 138.5 -95.7 138.15 -96.05 137.8 -96.4 137.3 -96.4 136.8 -96.4 136.45 -96.05 136.1 -95.7 136.1 -95.2 136.1 -94.65 136.45 -94.3 136.75 -94 137.3 -94M76.5 -64.55Q76.5 -62.85 77.45 -61.7 78.5 -60.45 80.35 -60.45 82.05 -60.45 83.15 -61.6 84.2 -62.75 84.2 -64.6 84.2 -66.3 83.25 -67.45 82.2 -68.65 80.4 -68.65 78.65 -68.65 77.55 -67.45 76.5 -66.3 76.5 -64.55M80.4 -62.05Q79.5 -62.05 79 -62.75 78.45 -63.45 78.45 -64.55 78.45 -65.7 79 -66.35 79.5 -67.05 80.3 -67.05 81.25 -67.05 81.8 -66.3 82.25 -65.6 82.25 -64.55 82.25 -63.35 81.7 -62.7 81.2 -62.05 80.4 -62.05M74 -101.1Q73.1 -102.2 71.45 -102.2 69.75 -102.2 68.7 -100.95 67.7 -99.75 67.7 -98 67.7 -96.35 68.6 -95.25 69.65 -94 71.65 -94 73.1 -94 74.05 -94.45 74.15 -94.5 74.15 -94.65L74.15 -95.95Q74.15 -96.1 74.05 -96 73.15 -95.65 72.1 -95.65 70.9 -95.65 70.3 -96.25 69.7 -96.75 69.65 -97.65L72.9 -97.65Q74.25 -97.65 74.55 -97.7 74.65 -97.75 74.7 -97.85 74.75 -98.05 74.75 -98.8 74.75 -100.15 74 -101.1M71.4 -100.65Q72.2 -100.65 72.6 -100.1 72.95 -99.65 72.95 -99.15L72.95 -99.05 69.65 -99.05Q69.95 -100.65 71.4 -100.65M65.8 -120.15Q64.05 -120.15 62.95 -118.95 61.9 -117.8 61.9 -116.05 61.9 -114.35 62.85 -113.2 63.9 -111.95 65.75 -111.95 67.45 -111.95 68.55 -113.1 69.6 -114.25 69.6 -116.1 69.6 -117.8 68.65 -118.95 67.6 -120.15 65.8 -120.15M64.4 -117.85Q64.9 -118.55 65.7 -118.55 66.65 -118.55 67.2 -117.8 67.65 -117.1 67.65 -116.05 67.65 -114.85 67.1 -114.2 66.6 -113.55 65.8 -113.55 64.9 -113.55 64.4 -114.25 63.85 -114.95 63.85 -116.05 63.85 -117.2 64.4 -117.85M77.6 -120L76 -120Q75.9 -120 75.85 -119.9 74.2 -114.75 74 -113.9 73.65 -115.3 72.25 -119.9 72.2 -120 72.1 -120L70.3 -120Q70.15 -120 70.2 -119.85L72.8 -112.2Q72.9 -112.1 73 -112.1L74.8 -112.1Q74.95 -112.1 75 -112.2L77.7 -119.85Q77.75 -120 77.6 -120M56.25 -102.05L54.75 -102.05Q54.6 -102.05 54.65 -101.9L54.7 -94.3Q54.7 -94.15 54.85 -94.15L56.5 -94.15Q56.65 -94.15 56.65 -94.25L56.65 -99.9Q57.35 -100.5 58.15 -100.5 59.5 -100.5 59.5 -98.95L59.5 -94.3Q59.5 -94.15 59.65 -94.15L61.3 -94.15Q61.45 -94.15 61.45 -94.25L61.4 -99.9Q62.05 -100.55 62.95 -100.55 64.3 -100.55 64.3 -98.9L64.3 -94.3Q64.3 -94.15 64.45 -94.15L66.1 -94.15Q66.25 -94.15 66.25 -94.25L66.25 -99.1Q66.25 -100.75 65.35 -101.55 64.7 -102.2 63.5 -102.2 62.15 -102.2 60.9 -101.15 60.25 -102.2 58.85 -102.2 57.55 -102.2 56.5 -101.3L56.4 -101.95Q56.35 -102.05 56.25 -102.05M49.95 -102.2Q48.25 -102.2 47.2 -100.95 46.2 -99.75 46.2 -98 46.2 -96.35 47.1 -95.25 48.15 -94 50.15 -94 51.6 -94 52.55 -94.45 52.65 -94.5 52.65 -94.65L52.65 -95.95Q52.65 -96.1 52.55 -96 51.65 -95.65 50.6 -95.65 49.4 -95.65 48.8 -96.25 48.2 -96.75 48.15 -97.65L51.4 -97.65Q52.75 -97.65 53.05 -97.7 53.15 -97.75 53.2 -97.85 53.25 -98.05 53.25 -98.8 53.25 -100.15 52.5 -101.1 51.6 -102.2 49.95 -102.2M48.15 -99.05Q48.45 -100.65 49.9 -100.65 50.7 -100.65 51.1 -100.1 51.45 -99.65 51.45 -99.15L51.45 -99.05 48.15 -99.05M44.45 -105.4Q44.45 -105.55 44.3 -105.55L42.65 -105.55Q42.5 -105.55 42.5 -105.4L42.5 -96.05Q42.5 -94 44.35 -94 45 -94 45.25 -94.1 45.4 -94.15 45.4 -94.3L45.4 -95.5Q45.4 -95.6 45.3 -95.6L45 -95.55Q44.45 -95.55 44.45 -96.25L44.45 -105.4M47 -122.95Q46.7 -123.25 46.2 -123.25 45.7 -123.25 45.4 -122.95 45.1 -122.65 45.1 -122.15 45.1 -121.65 45.4 -121.35 45.7 -121.05 46.2 -121.05 46.7 -121.05 47 -121.35 47.3 -121.65 47.3 -122.15 47.3 -122.65 47 -122.95M47.15 -119.85Q47.15 -120 47.05 -120L45.35 -120Q45.2 -120 45.2 -119.85L45.2 -112.25Q45.2 -112.1 45.35 -112.1L47 -112.1Q47.15 -112.1 47.15 -112.2L47.15 -119.85M51.55 -118.6Q52.7 -118.6 53.55 -118.15 53.7 -118.1 53.7 -118.2L53.7 -119.65Q53.7 -119.75 53.6 -119.85 52.95 -120.15 51.6 -120.15 50.15 -120.15 49.35 -119.45 48.6 -118.75 48.6 -117.8 48.6 -116.9 49.15 -116.35 49.65 -115.75 50.95 -115.3 52.25 -114.75 52.25 -114.2 52.25 -113.5 51.05 -113.5 49.75 -113.5 48.75 -114.15 48.6 -114.2 48.6 -114.1L48.6 -112.55Q48.6 -112.45 48.75 -112.4 49.5 -111.95 51 -111.95 52.45 -111.95 53.3 -112.6 54.15 -113.25 54.15 -114.4 54.15 -115.25 53.6 -115.85 53.05 -116.4 51.7 -116.9 50.4 -117.4 50.4 -117.9 50.4 -118.6 51.55 -118.6M59.45 -120.15Q57.5 -120.15 56.25 -118.95 55.05 -117.8 55.05 -116 55.05 -114.25 56.15 -113.1 57.3 -111.95 59.2 -111.95 60.35 -111.95 60.95 -112.2 61.05 -112.2 61.05 -112.35L61.05 -113.75Q61.05 -113.85 60.95 -113.85 60.5 -113.65 59.55 -113.65 58.5 -113.65 57.85 -114.2 57.05 -114.85 57.05 -116.1 57.05 -117.2 57.75 -117.85 58.4 -118.5 59.55 -118.5 60.35 -118.5 60.9 -118.3 61.05 -118.25 61.05 -118.35L61.05 -119.8Q61.05 -119.95 60.95 -119.95 60.45 -120.15 59.45 -120.15M40.3 -101.1Q39.4 -102.2 37.75 -102.2 36.05 -102.2 35 -100.95 34 -99.75 34 -98 34 -96.35 34.9 -95.25 35.95 -94 37.95 -94 39.4 -94 40.35 -94.45 40.45 -94.5 40.45 -94.65L40.45 -95.95Q40.45 -96.1 40.35 -96 39.45 -95.65 38.4 -95.65 37.2 -95.65 36.6 -96.25 36 -96.75 35.95 -97.65L39.2 -97.65Q40.55 -97.65 40.85 -97.7 40.95 -97.75 41 -97.85 41.05 -98.05 41.05 -98.8 41.05 -100.15 40.3 -101.1M35.95 -99.05Q36.25 -100.65 37.7 -100.65 38.5 -100.65 38.9 -100.1 39.25 -99.65 39.25 -99.15L39.25 -99.05 35.95 -99.05M34.95 -112.1L37.95 -112.05Q40.25 -112.05 41.8 -113.35 43.6 -114.85 43.6 -117.55 43.6 -119.85 42.2 -121.2 40.7 -122.65 37.95 -122.65L34.95 -122.6Q34.85 -122.6 34.85 -122.45L34.85 -112.25Q34.85 -112.1 34.95 -112.1M36.75 -113.75L36.75 -120.95 37.95 -120.95Q39.65 -120.95 40.6 -120.1 41.65 -119.2 41.65 -117.5 41.65 -115.7 40.6 -114.7 39.6 -113.75 37.85 -113.75L36.75 -113.75M136.1 -100.35Q136.1 -99.8 136.45 -99.45 136.75 -99.15 137.3 -99.15 138.5 -99.15 138.5 -100.35 138.5 -100.85 138.15 -101.2 137.8 -101.5 137.3 -101.5 136.8 -101.5 136.45 -101.2 136.1 -100.85 136.1 -100.35M130.8 -102.2Q129.3 -102.2 128.45 -101.4 127.6 -100.65 127.6 -99.45 127.6 -98.1 128.7 -97.4 128.4 -96.9 128.4 -96.35 128.4 -95.65 128.75 -95.15 127.25 -93.85 127.25 -93.05 127.25 -92.1 128.15 -91.4 129.2 -90.6 131 -90.6 132.85 -90.6 134 -91.45 135.1 -92.3 135.1 -93.55 135.1 -95.65 131.95 -95.85L130.35 -95.9Q130.15 -96.15 130.15 -96.4 130.1 -96.6 130.2 -96.85L130.8 -96.8Q132.15 -96.8 133 -97.45 133.9 -98.15 133.9 -99.4 133.9 -100.1 133.55 -100.6L134.8 -100.55Q134.9 -100.55 134.9 -100.65L134.9 -101.95Q134.9 -102.05 134.8 -102.05L132.55 -102.05 132.2 -102.1Q131.6 -102.2 130.8 -102.2M129.5 -99.5Q129.5 -100.1 129.85 -100.45 130.2 -100.8 130.8 -100.8 132.05 -100.8 132.05 -99.45 132.05 -98.2 130.8 -98.2 130.15 -98.2 129.8 -98.6 129.5 -98.9 129.5 -99.5M133.35 -93.25Q133.35 -92.75 132.8 -92.4 132.2 -92 131.15 -92 130.2 -92 129.6 -92.4 129.05 -92.75 129.05 -93.2 129.05 -93.4 129.25 -93.7 129.5 -94.05 129.8 -94.25L131.55 -94.2Q133.35 -94.1 133.35 -93.25M129.95 -119.05Q129.05 -120.15 127.4 -120.15 125.7 -120.15 124.65 -118.9 123.65 -117.7 123.65 -115.95 123.65 -114.3 124.55 -113.2 125.6 -111.95 127.6 -111.95 129.05 -111.95 130 -112.4 130.1 -112.45 130.1 -112.6L130.1 -113.9Q130.1 -114.05 130 -113.95 129.1 -113.6 128.05 -113.6 126.85 -113.6 126.25 -114.2 125.65 -114.7 125.6 -115.6L128.85 -115.6Q130.2 -115.6 130.5 -115.65 130.6 -115.7 130.65 -115.8 130.7 -116 130.7 -116.75 130.7 -118.1 129.95 -119.05M127.35 -118.6Q128.15 -118.6 128.55 -118.05 128.9 -117.6 128.9 -117.1L128.9 -117 125.6 -117Q125.9 -118.6 127.35 -118.6M138.8 -123.4Q138.8 -123.5 138.75 -123.5L137 -123.5Q136.9 -123.5 136.9 -123.4L136.9 -120.1 136.2 -120.15Q134.15 -120.15 132.9 -118.95 131.65 -117.75 131.65 -115.95 131.65 -114.05 132.85 -112.95 133.95 -111.95 135.75 -111.95 137.35 -111.95 138.8 -112.55 138.9 -112.6 138.9 -112.7L138.8 -113.75 138.8 -123.4M134.35 -117.9Q135.05 -118.55 136.15 -118.55 136.6 -118.55 136.9 -118.4L136.9 -113.75Q136.5 -113.6 135.95 -113.6 134.95 -113.6 134.35 -114.2 133.65 -114.85 133.65 -116.05 133.65 -117.2 134.35 -117.9M120.9 -101.3L120.8 -101.9Q120.75 -102.05 120.6 -102.05L119.15 -102.05Q119.05 -102.05 119.05 -101.9L119.1 -94.25Q119.1 -94.15 119.25 -94.15L120.9 -94.15Q121.05 -94.15 121.05 -94.25L121.05 -99.85Q121.65 -100.5 122.6 -100.5 124 -100.5 124 -98.85L124 -94.3Q124 -94.15 124.1 -94.15L125.8 -94.15Q125.9 -94.15 125.9 -94.3L125.9 -99.05Q125.9 -100.75 125 -101.55 124.35 -102.2 123.25 -102.2 121.95 -102.2 120.9 -101.3M115.35 -103.4Q115.65 -103.1 116.15 -103.1 116.65 -103.1 116.95 -103.4 117.25 -103.7 117.25 -104.2 117.25 -104.7 116.95 -105 116.65 -105.3 116.15 -105.3 115.65 -105.3 115.35 -105 115.05 -104.7 115.05 -104.2 115.05 -103.7 115.35 -103.4M115.3 -102.05Q115.15 -102.05 115.15 -101.9L115.15 -94.3Q115.15 -94.15 115.3 -94.15L116.95 -94.15Q117.1 -94.15 117.1 -94.25L117.1 -101.9Q117.1 -102.05 117 -102.05L115.3 -102.05M111.2 -102.2Q109.75 -102.2 108.95 -101.5 108.2 -100.8 108.2 -99.85 108.2 -98.95 108.75 -98.4 109.25 -97.8 110.55 -97.35 111.85 -96.8 111.85 -96.25 111.85 -95.55 110.65 -95.55 109.35 -95.55 108.35 -96.2 108.2 -96.25 108.2 -96.15L108.2 -94.6Q108.2 -94.5 108.35 -94.45 109.1 -94 110.6 -94 112.05 -94 112.9 -94.65 113.75 -95.3 113.75 -96.45 113.75 -97.3 113.2 -97.9 112.65 -98.45 111.3 -98.95 110 -99.45 110 -99.95 110 -100.65 111.15 -100.65 112.3 -100.65 113.15 -100.2 113.3 -100.15 113.3 -100.25L113.3 -101.7Q113.3 -101.8 113.2 -101.9 112.55 -102.2 111.2 -102.2M110.55 -119.05Q109.65 -120.15 108 -120.15 106.3 -120.15 105.25 -118.9 104.25 -117.7 104.25 -115.95 104.25 -114.3 105.15 -113.2 106.2 -111.95 108.2 -111.95 109.65 -111.95 110.6 -112.4 110.7 -112.45 110.7 -112.6L110.7 -113.9Q110.7 -114.05 110.6 -113.95 109.7 -113.6 108.65 -113.6 107.45 -113.6 106.85 -114.2 106.25 -114.7 106.2 -115.6L109.45 -115.6Q110.8 -115.6 111.1 -115.65 111.2 -115.7 111.25 -115.8 111.3 -116 111.3 -116.75 111.3 -118.1 110.55 -119.05M107.95 -118.6Q108.75 -118.6 109.15 -118.05 109.5 -117.6 109.5 -117.1L109.5 -117 106.2 -117Q106.5 -118.6 107.95 -118.6M117.3 -119.65Q117.3 -119.75 117.2 -119.85 116.55 -120.15 115.2 -120.15 113.75 -120.15 112.95 -119.45 112.2 -118.75 112.2 -117.8 112.2 -116.9 112.75 -116.35 113.25 -115.75 114.55 -115.3 115.85 -114.75 115.85 -114.2 115.85 -113.5 114.65 -113.5 113.35 -113.5 112.35 -114.15 112.2 -114.2 112.2 -114.1L112.2 -112.55Q112.2 -112.45 112.35 -112.4 113.1 -111.95 114.6 -111.95 116.05 -111.95 116.9 -112.6 117.75 -113.25 117.75 -114.4 117.75 -115.25 117.2 -115.85 116.65 -116.4 115.3 -116.9 114 -117.4 114 -117.9 114 -118.6 115.15 -118.6 116.3 -118.6 117.15 -118.15 117.3 -118.1 117.3 -118.2L117.3 -119.65M119.65 -122.1Q119.55 -122.1 119.5 -121.95 119.4 -121.35 119.35 -120L118.35 -120Q118.2 -120 118.2 -119.85L118.2 -118.5Q118.2 -118.4 118.35 -118.35L119.35 -118.35 119.35 -114.15Q119.35 -111.95 121.45 -111.95 122.2 -111.95 122.8 -112.15 122.9 -112.2 122.9 -112.35L122.9 -113.5Q122.9 -113.65 122.8 -113.6L122.2 -113.55Q121.25 -113.55 121.25 -114.6L121.25 -118.35 122.85 -118.35Q122.95 -118.35 122.95 -118.5L122.95 -119.85Q122.95 -120 122.85 -120L121.3 -120 121.35 -122.25Q121.35 -122.35 121.25 -122.35L119.65 -122.1M100.2 -102.05Q100.05 -102.05 100.05 -101.9L100.05 -97.05Q100.05 -94 102.75 -94 104.1 -94 104.95 -94.8L105.1 -94.25Q105.1 -94.15 105.25 -94.15L106.7 -94.15Q106.85 -94.15 106.85 -94.25 106.75 -95.25 106.75 -95.9L106.75 -101.9Q106.75 -102.05 106.65 -102.05L104.95 -102.05Q104.8 -102.05 104.8 -101.9L104.8 -96.25Q104.2 -95.65 103.35 -95.65 102 -95.65 102 -97.25L102 -101.9Q102 -102.05 101.85 -102.05L100.2 -102.05M90.2 -101.5Q89.45 -100.8 89.45 -99.85 89.45 -98.95 90 -98.4 90.5 -97.8 91.8 -97.35 93.1 -96.8 93.1 -96.25 93.1 -95.55 91.9 -95.55 90.6 -95.55 89.6 -96.2 89.45 -96.25 89.45 -96.15L89.45 -94.6Q89.45 -94.5 89.6 -94.45 90.35 -94 91.85 -94 93.3 -94 94.15 -94.65 95 -95.3 95 -96.45 95 -97.3 94.45 -97.9 93.9 -98.45 92.55 -98.95 91.25 -99.45 91.25 -99.95 91.25 -100.65 92.4 -100.65 93.55 -100.65 94.4 -100.2 94.55 -100.15 94.55 -100.25L94.55 -101.7Q94.55 -101.8 94.45 -101.9 93.8 -102.2 92.45 -102.2 91 -102.2 90.2 -101.5M83 -99.05Q83 -100.75 82.1 -101.55 81.45 -102.2 80.35 -102.2 79.05 -102.2 78 -101.3L77.9 -101.9Q77.85 -102.05 77.7 -102.05L76.25 -102.05Q76.15 -102.05 76.15 -101.9L76.2 -94.25Q76.2 -94.15 76.35 -94.15L78 -94.15Q78.15 -94.15 78.15 -94.25L78.15 -99.85Q78.75 -100.5 79.7 -100.5 81.1 -100.5 81.1 -98.85L81.1 -94.3Q81.1 -94.15 81.2 -94.15L82.9 -94.15Q83 -94.15 83 -94.3L83 -99.05M85.5 -104.15Q85.4 -104.15 85.35 -104 85.25 -103.4 85.2 -102.05L84.2 -102.05Q84.05 -102.05 84.05 -101.9L84.05 -100.55Q84.05 -100.45 84.2 -100.4L85.2 -100.4 85.2 -96.2Q85.2 -94 87.3 -94 88.05 -94 88.65 -94.2 88.75 -94.25 88.75 -94.4L88.75 -95.55Q88.75 -95.7 88.65 -95.65L88.05 -95.6Q87.1 -95.6 87.1 -96.65L87.1 -100.4 88.7 -100.4Q88.8 -100.4 88.8 -100.55L88.8 -101.9Q88.8 -102.05 88.7 -102.05L87.15 -102.05 87.2 -104.3Q87.2 -104.4 87.1 -104.4L85.5 -104.15M84.55 -119.05Q83.65 -120.15 82 -120.15 80.3 -120.15 79.25 -118.9 78.25 -117.7 78.25 -115.95 78.25 -114.3 79.15 -113.2 80.2 -111.95 82.2 -111.95 83.65 -111.95 84.6 -112.4 84.7 -112.45 84.7 -112.6L84.7 -113.9Q84.7 -114.05 84.6 -113.95 83.7 -113.6 82.65 -113.6 81.45 -113.6 80.85 -114.2 80.25 -114.7 80.2 -115.6L83.45 -115.6Q84.8 -115.6 85.1 -115.65 85.2 -115.7 85.25 -115.8 85.3 -116 85.3 -116.75 85.3 -118.1 84.55 -119.05M81.95 -118.6Q82.75 -118.6 83.15 -118.05 83.5 -117.6 83.5 -117.1L83.5 -117 80.2 -117Q80.5 -118.6 81.95 -118.6M91.3 -120.05Q91.3 -120.15 91.15 -120.15 89.65 -120.15 88.6 -118.9 88.6 -119.5 88.45 -119.85 88.4 -120 88.3 -120L86.75 -120Q86.7 -120 86.7 -119.9 86.75 -119.25 86.75 -117.75L86.75 -112.2Q86.75 -112.1 86.9 -112.1L88.55 -112.1Q88.7 -112.1 88.7 -112.2L88.7 -117.4Q89 -117.75 89.65 -118 90.35 -118.25 91.15 -118.2 91.3 -118.2 91.3 -118.35L91.3 -120.05M97.65 -119.85Q97.6 -120 97.45 -120L96 -120Q95.9 -120 95.9 -119.85L95.95 -112.2Q95.95 -112.1 96.1 -112.1L97.75 -112.1Q97.9 -112.1 97.9 -112.2L97.9 -117.8Q98.5 -118.45 99.45 -118.45 100.85 -118.45 100.85 -116.8L100.85 -112.25Q100.85 -112.1 100.95 -112.1L102.65 -112.1Q102.75 -112.1 102.75 -112.25L102.75 -117Q102.75 -118.7 101.85 -119.5 101.2 -120.15 100.1 -120.15 98.8 -120.15 97.75 -119.25L97.65 -119.85Z"/>
          <animate attributeName="display" repeatCount="indefinite" dur="14.567s" keyTimes="0;.984;1" values="none;inline;inline"/>
        </g>
        <g display="none" id="Layer19_0_FILL">
          <path fill="#FFF" stroke="none" d="M56.9 -76.15Q51.55 -81.5 43.95 -81.5 36.35 -81.5 31 -76.15 25.65 -70.75 25.65 -63.15 25.65 -55.55 31 -50.2L43.85 -37.35Q49.2 -32 56.8 -32 64.4 -32 69.75 -37.35 75.15 -42.7 75.15 -50.3 75.15 -57.9 69.75 -63.3L56.9 -76.15Z"/>
          <path id="Layer20_0_1_STROKES" stroke="#273C4F" stroke-width="3.95" stroke-linejoin="miter" stroke-linecap="butt" stroke-miterlimit="4" fill="none" d="M32.4 -74.7Q37.2 -79.5 43.95 -79.5 50.75 -79.5 55.5 -74.7L68.35 -61.85Q73.15 -57.1 73.15 -50.3 73.15 -43.55 68.35 -38.8 63.6 -34 56.8 -34 50.05 -34 45.25 -38.8L32.4 -51.6Q27.65 -56.4 27.65 -63.15 27.65 -69.95 32.4 -74.7Z"/>
          <animate attributeName="display" repeatCount="indefinite" dur="14.567s" keyTimes="0;.984;1" values="none;inline;inline"/>
        </g>
        <g display="none">
          <g transform="matrix(.707 .707 -.707 .707 -26.9 -60.2)" id="Layer18_0_FILL">
            <path fill="#58DA7F" fill-opacity=".968" stroke="none" d="M50.3 -56.7L43.4 -56.7Q41.55 -56.7 40.2 -55.4 38.9 -54.05 38.9 -52.2 38.9 -50.35 40.2 -49.05 41.55 -47.7 43.4 -47.7L50.3 -47.7Q52.15 -47.7 53.45 -49.05 54.8 -50.35 54.8 -52.2 54.8 -54.05 53.45 -55.4 52.15 -56.7 50.3 -56.7Z"/>
          </g>
          <animate attributeName="display" repeatCount="indefinite" dur="14.567s" keyTimes="0;.984;1" values="none;inline;inline"/>
        </g>
        <g display="none">
          <use xlink:href="#ball" transform="translate(41.4 -57.4)" filter="url(#filter11)"/>
          <animate attributeName="display" repeatCount="indefinite" dur="14.567s" keyTimes="0;.984;1" values="none;inline;inline"/>
        </g>
        <g display="none">
          <use xlink:href="#shadow" transform="matrix(1.097 0 0 1.097 96.8 -35.1)"/>
          <animate attributeName="display" repeatCount="indefinite" dur="14.567s" keyTimes="0;.984;1" values="none;inline;inline"/>
        </g>
        <g display="none">
          <use xlink:href="#tab" transform="translate(99.05 -43)"/>
          <animate attributeName="display" repeatCount="indefinite" dur="14.567s" keyTimes="0;.984;1" values="none;inline;inline"/>
        </g>
      </g>
      <animate attributeName="display" repeatCount="indefinite" dur="14.567s" keyTimes="0;.984;1" values="none;inline;inline"/>
    </g>
    <g display="none">
      <g id="bubble2" transform="matrix(.183 0 0 .183 4.4 137.6)">
        <animateTransform attributeName="transform" additive="replace" type="translate" repeatCount="indefinite" dur="14.567s" keyTimes="0;.394;.41;.96799;.984;1" values="4.56,137.404;4.56,137.404;4,137.4;4,137.4;4.004,137.35;4.004,137.35"/>
        <animateTransform attributeName="transform" additive="sum" type="scale" repeatCount="indefinite" dur="14.567s" keyTimes="0;.394;.41;.96799;.984;1" values=".183,.183;.183,.183;1,1;1,1;.091,.091;.091,.091"/>
        <animateTransform attributeName="transform" additive="sum" type="translate" repeatCount="indefinite" dur="14.567s" keyTimes="0;.394;.41;.96799;.984;1" values="-1.15,.8;-1.15,.8;-.25,1.1;-.25,1.1;-.6,.55;-.6,.55"/>
        <path fill="#000" fill-opacity=".2" stroke="none" d="M161.15 -128.5Q158.85 -130.85 155.5 -130.85L22.5 -130.85Q19.2 -130.85 16.85 -128.5 14.5 -126.15 14.5 -122.85L14.5 -19.85Q14.5 -18.7 6.95 -9.6 -.6 -.55 .05 -.05 .65 .4 11.2 -5.7 21.75 -11.85 22.5 -11.85L155.5 -11.85Q158.85 -11.85 161.15 -14.2 163.5 -16.55 163.5 -19.85L163.5 -122.85Q163.5 -126.15 161.15 -128.5Z"/>
        <path fill="#000" fill-opacity=".2" stroke="none" d="M160.2 -129.5Q157.9 -131.85 154.55 -131.85L21.55 -131.85Q18.25 -131.85 15.9 -129.5 13.55 -127.15 13.55 -123.85L13.55 -20.85Q13.55 -19.7 6.45 -10.15 -.7 -.65 .05 -.05 .75 .5 10.8 -6.15 20.8 -12.85 21.55 -12.85L154.55 -12.85Q157.9 -12.85 160.2 -15.2 162.55 -17.55 162.55 -20.85L162.55 -123.85Q162.55 -127.15 160.2 -129.5Z"/>
        <path fill="#000" fill-opacity=".2" stroke="none" d="M159.15 -130.5Q156.85 -132.85 153.5 -132.85L20.5 -132.85Q17.2 -132.85 14.85 -130.5 12.5 -128.15 12.5 -124.85L12.5 -21.85Q12.5 -20.7 5.75 -10.55 -.65 -.85 .2 -.15 1.1 .5 10.25 -6.55 19.75 -13.85 20.5 -13.85L153.5 -13.85Q156.85 -13.85 159.15 -16.2 161.5 -18.55 161.5 -21.85L161.5 -124.85Q161.5 -128.15 159.15 -130.5Z"/>
        <path fill="#0E999F" stroke="none" d="M158.2 -131.8Q155.9 -134.15 152.55 -134.15L19.55 -134.15Q16.25 -134.15 13.9 -131.8 11.55 -129.45 11.55 -126.15L11.55 -23.15Q11.55 -22.05 5.25 -11.2 -.75 -.9 .1 -.2 1 .45 9.75 -7.2 18.75 -15.15 19.55 -15.15L152.55 -15.15Q155.9 -15.15 158.2 -17.5 160.55 -19.85 160.55 -23.15L160.55 -126.15Q160.55 -129.45 158.2 -131.8Z"/>
        <use xlink:href="#help_01.svg_Layer-1_Discover-nested-elements-using:-" transform="translate(76.9 -71.5)"/>
        <path fill="#FC0" stroke="none" d="M143.05 -93.9Q143.05 -93.4 143.35 -93.1 143.65 -92.8 144.2 -92.8 144.7 -92.8 145 -93.1 145.35 -93.4 145.35 -93.9 145.35 -94.4 145 -94.7 144.7 -95 144.2 -95 143.7 -95 143.35 -94.7 143.05 -94.35 143.05 -93.9M74.65 -101Q73.15 -101 72.3 -100.2 71.45 -99.45 71.45 -98.25 71.45 -96.9 72.55 -96.2 72.25 -95.7 72.25 -95.15 72.25 -94.45 72.6 -93.95 71.1 -92.65 71.1 -91.85 71.1 -90.9 72 -90.2 73.05 -89.4 74.85 -89.4 76.7 -89.4 77.85 -90.25 78.95 -91.1 78.95 -92.35 78.95 -94.45 75.8 -94.65L74.2 -94.7Q74 -94.95 74 -95.2 73.95 -95.4 74.05 -95.65L74.65 -95.6Q76 -95.6 76.85 -96.25 77.75 -96.95 77.75 -98.2 77.75 -98.9 77.4 -99.4L78.65 -99.35Q78.75 -99.35 78.75 -99.45L78.75 -100.75Q78.75 -100.85 78.65 -100.85L76.4 -100.85 76.05 -100.9Q75.45 -101 74.65 -101M73.7 -99.25Q74.05 -99.6 74.65 -99.6 75.9 -99.6 75.9 -98.25 75.9 -97 74.65 -97 74 -97 73.65 -97.4 73.35 -97.7 73.35 -98.3 73.35 -98.9 73.7 -99.25M73.65 -93.05L75.4 -93Q77.2 -92.9 77.2 -92.05 77.2 -91.55 76.65 -91.2 76.05 -90.8 75 -90.8 74.05 -90.8 73.45 -91.2 72.9 -91.55 72.9 -92 72.9 -92.2 73.1 -92.5 73.35 -92.85 73.65 -93.05M64.75 -100.1L64.65 -100.7Q64.6 -100.85 64.45 -100.85L63 -100.85Q62.9 -100.85 62.9 -100.7L62.95 -93.05Q62.95 -92.95 63.1 -92.95L64.75 -92.95Q64.9 -92.95 64.9 -93.05L64.9 -98.65Q65.5 -99.3 66.45 -99.3 67.85 -99.3 67.85 -97.65L67.85 -93.1Q67.85 -92.95 67.95 -92.95L69.65 -92.95Q69.75 -92.95 69.75 -93.1L69.75 -97.85Q69.75 -99.55 68.85 -100.35 68.2 -101 67.1 -101 65.8 -101 64.75 -100.1M69.5 -118.35Q68.85 -119 67.75 -119 66.45 -119 65.4 -118.1L65.3 -118.7Q65.25 -118.85 65.1 -118.85L63.65 -118.85Q63.55 -118.85 63.55 -118.7L63.6 -111.05Q63.6 -110.95 63.75 -110.95L65.4 -110.95Q65.55 -110.95 65.55 -111.05L65.55 -116.65Q66.15 -117.3 67.1 -117.3 68.5 -117.3 68.5 -115.65L68.5 -111.1Q68.5 -110.95 68.6 -110.95L70.3 -110.95Q70.4 -110.95 70.4 -111.1L70.4 -115.85Q70.4 -117.55 69.5 -118.35M72.4 -113.35Q72.3 -113.35 72.3 -113.25 72.4 -110.9 71.4 -108.95 71.35 -108.8 71.5 -108.8L72.85 -108.8Q73 -108.8 73.05 -108.9 74.25 -110.65 74.05 -113.2 74.05 -113.35 73.95 -113.35L72.4 -113.35M59.15 -100.85Q59 -100.85 59 -100.7L59 -93.1Q59 -92.95 59.15 -92.95L60.8 -92.95Q60.95 -92.95 60.95 -93.05L60.95 -100.7Q60.95 -100.85 60.85 -100.85L59.15 -100.85M59.2 -103.8Q58.9 -103.5 58.9 -103 58.9 -102.5 59.2 -102.2 59.5 -101.9 60 -101.9 60.5 -101.9 60.8 -102.2 61.1 -102.5 61.1 -103 61.1 -103.5 60.8 -103.8 60.5 -104.1 60 -104.1 59.5 -104.1 59.2 -103.8M53.7 -101Q52.2 -101 51.35 -100.2 50.5 -99.45 50.5 -98.25 50.5 -96.9 51.6 -96.2 51.3 -95.7 51.3 -95.15 51.3 -94.45 51.65 -93.95 50.15 -92.65 50.15 -91.85 50.15 -90.9 51.05 -90.2 52.1 -89.4 53.9 -89.4 55.75 -89.4 56.9 -90.25 58 -91.1 58 -92.35 58 -94.45 54.85 -94.65L53.25 -94.7Q53.05 -94.95 53.05 -95.2 53 -95.4 53.1 -95.65L53.7 -95.6Q55.05 -95.6 55.9 -96.25 56.8 -96.95 56.8 -98.2 56.8 -98.9 56.45 -99.4L57.7 -99.35Q57.8 -99.35 57.8 -99.45L57.8 -100.75Q57.8 -100.85 57.7 -100.85L55.45 -100.85 55.1 -100.9Q54.5 -101 53.7 -101M52.75 -99.25Q53.1 -99.6 53.7 -99.6 54.95 -99.6 54.95 -98.25 54.95 -97 53.7 -97 53.05 -97 52.7 -97.4 52.4 -97.7 52.4 -98.3 52.4 -98.9 52.75 -99.25M52.7 -93.05L54.45 -93Q56.25 -92.9 56.25 -92.05 56.25 -91.55 55.7 -91.2 55.1 -90.8 54.05 -90.8 53.1 -90.8 52.5 -91.2 51.95 -91.55 51.95 -92 51.95 -92.2 52.15 -92.5 52.4 -92.85 52.7 -93.05M45.5 -101Q44 -101 43.15 -100.2 42.3 -99.45 42.3 -98.25 42.3 -96.9 43.4 -96.2 43.1 -95.7 43.1 -95.15 43.1 -94.45 43.45 -93.95 41.95 -92.65 41.95 -91.85 41.95 -90.9 42.85 -90.2 43.9 -89.4 45.7 -89.4 47.55 -89.4 48.7 -90.25 49.8 -91.1 49.8 -92.35 49.8 -94.45 46.65 -94.65L45.05 -94.7Q44.85 -94.95 44.85 -95.2 44.8 -95.4 44.9 -95.65L45.5 -95.6Q46.85 -95.6 47.7 -96.25 48.6 -96.95 48.6 -98.2 48.6 -98.9 48.25 -99.4L49.5 -99.35Q49.6 -99.35 49.6 -99.45L49.6 -100.75Q49.6 -100.85 49.5 -100.85L47.25 -100.85 46.9 -100.9Q46.3 -101 45.5 -101M44.55 -99.25Q44.9 -99.6 45.5 -99.6 46.75 -99.6 46.75 -98.25 46.75 -97 45.5 -97 44.85 -97 44.5 -97.4 44.2 -97.7 44.2 -98.3 44.2 -98.9 44.55 -99.25M44.3 -91.2Q43.75 -91.55 43.75 -92 43.75 -92.2 43.95 -92.5 44.2 -92.85 44.5 -93.05L46.25 -93Q48.05 -92.9 48.05 -92.05 48.05 -91.55 47.5 -91.2 46.9 -90.8 45.85 -90.8 44.9 -90.8 44.3 -91.2M52.95 -115.9Q52.95 -117.55 52.05 -118.35 51.4 -119 50.2 -119 48.85 -119 47.6 -117.95 46.95 -119 45.55 -119 44.25 -119 43.2 -118.1L43.1 -118.75Q43.05 -118.85 42.95 -118.85L41.45 -118.85Q41.3 -118.85 41.35 -118.7L41.4 -111.1Q41.4 -110.95 41.55 -110.95L43.2 -110.95Q43.35 -110.95 43.35 -111.05L43.35 -116.7Q44.05 -117.3 44.85 -117.3 46.2 -117.3 46.2 -115.75L46.2 -111.1Q46.2 -110.95 46.35 -110.95L48 -110.95Q48.15 -110.95 48.15 -111.05L48.1 -116.7Q48.75 -117.35 49.65 -117.35 51 -117.35 51 -115.7L51 -111.1Q51 -110.95 51.15 -110.95L52.8 -110.95Q52.95 -110.95 52.95 -111.05L52.95 -115.9M54.4 -114.9Q54.4 -113.2 55.35 -112.05 56.4 -110.8 58.25 -110.8 59.95 -110.8 61.05 -111.95 62.1 -113.1 62.1 -114.95 62.1 -116.65 61.15 -117.8 60.1 -119 58.3 -119 56.55 -119 55.45 -117.8 54.4 -116.65 54.4 -114.9M56.9 -116.7Q57.4 -117.4 58.2 -117.4 59.15 -117.4 59.7 -116.65 60.15 -115.95 60.15 -114.9 60.15 -113.7 59.6 -113.05 59.1 -112.4 58.3 -112.4 57.4 -112.4 56.9 -113.1 56.35 -113.8 56.35 -114.9 56.35 -116.05 56.9 -116.7M38.8 -100.85Q38.65 -100.85 38.65 -100.7L38.65 -95.05Q38.05 -94.45 37.2 -94.45 35.85 -94.45 35.85 -96.05L35.85 -100.7Q35.85 -100.85 35.7 -100.85L34.05 -100.85Q33.9 -100.85 33.9 -100.7L33.9 -95.85Q33.9 -92.8 36.6 -92.8 37.95 -92.8 38.8 -93.6L38.95 -93.05Q38.95 -92.95 39.1 -92.95L40.55 -92.95Q40.7 -92.95 40.7 -93.05 40.6 -94.05 40.6 -94.7L40.6 -100.7Q40.6 -100.85 40.5 -100.85L38.8 -100.85M25.3 -104.35Q25.2 -104.35 25.2 -104.25L25.2 -93.3Q25.2 -93.15 25.3 -93.15 26.45 -92.8 27.7 -92.8 29.65 -92.8 30.95 -93.9 32.4 -95.1 32.4 -97.2 32.4 -98.85 31.35 -99.9 30.3 -101 28.6 -101 27.85 -101 27.15 -100.75L27.15 -104.2Q27.15 -104.35 27 -104.35L25.3 -104.35M27.15 -99.2Q27.65 -99.35 28.3 -99.35 29.25 -99.35 29.85 -98.75 30.45 -98.15 30.45 -97.05 30.45 -95.75 29.65 -95.05 28.95 -94.4 27.9 -94.4 27.45 -94.4 27.15 -94.5L27.15 -99.2M37 -121.2Q37 -121.3 36.9 -121.35 36.25 -121.6 34.8 -121.6 32.2 -121.6 30.65 -120.1 29.1 -118.6 29.1 -116.2 29.1 -113.55 30.7 -112.1 32.2 -110.8 34.55 -110.8 36 -110.8 36.75 -111.05 36.9 -111.1 36.9 -111.3L36.9 -112.7Q36.9 -112.85 36.75 -112.8 36 -112.5 34.8 -112.5 33.35 -112.5 32.3 -113.35 31.1 -114.35 31.1 -116.25 31.1 -117.9 32.1 -118.9 33.1 -119.9 34.75 -119.9 36.1 -119.9 36.85 -119.55 37 -119.5 37 -119.65L37 -121.2M39.8 -122.25Q39.8 -122.35 39.7 -122.35L38.1 -122.35Q38 -122.35 38 -122.2L38.05 -118.25Q38.05 -118.15 38.15 -118.15L39.4 -118.15Q39.5 -118.15 39.55 -118.25L39.8 -122.25M144.2 -103.65Q143.6 -103.65 143.2 -103.45 143.15 -103.4 143.15 -103.25L143.15 -102.1Q143.15 -100.6 143.45 -96.55 143.45 -96.45 143.55 -96.45L144.8 -96.45Q144.95 -96.45 144.95 -96.55 145.25 -99.75 145.25 -102.15L145.25 -103.3Q145.25 -103.45 145.15 -103.5 144.85 -103.65 144.2 -103.65M129.25 -100.85Q129.2 -100.85 129.2 -100.75 129.25 -100.1 129.25 -98.6L129.25 -93.05Q129.25 -92.95 129.4 -92.95L131.05 -92.95Q131.2 -92.95 131.2 -93.05L131.2 -98.25Q131.5 -98.6 132.15 -98.85 132.85 -99.1 133.65 -99.05 133.8 -99.05 133.8 -99.2L133.8 -100.7Q135.1 -97.4 136.75 -93.35 136.8 -93.25 136.75 -93.1 135.9 -91.15 135.2 -89.8 135.2 -89.65 135.3 -89.65L137.05 -89.8Q137.2 -89.8 137.25 -89.9 139.85 -95.85 141.45 -100.7 141.45 -100.85 141.35 -100.85L139.7 -100.85Q139.55 -100.85 139.55 -100.75L137.7 -95.25Q137.35 -96.7 135.95 -100.75 135.9 -100.85 135.8 -100.85L133.9 -100.85Q133.825 -100.85 133.8 -100.8L133.8 -100.9Q133.8 -101 133.65 -101 132.15 -101 131.1 -99.75 131.1 -100.35 130.95 -100.7 130.9 -100.85 130.8 -100.85L129.25 -100.85M124.75 -102.95Q124.65 -102.95 124.6 -102.8 124.5 -102.2 124.45 -100.85L123.45 -100.85Q123.3 -100.85 123.3 -100.7L123.3 -99.35Q123.3 -99.25 123.45 -99.2L124.45 -99.2 124.45 -95Q124.45 -92.8 126.55 -92.8 127.3 -92.8 127.9 -93 128 -93.05 128 -93.2L128 -94.35Q128 -94.5 127.9 -94.45L127.3 -94.4Q126.35 -94.4 126.35 -95.45L126.35 -99.2 127.95 -99.2Q128.05 -99.2 128.05 -99.35L128.05 -100.7Q128.05 -100.85 127.95 -100.85L126.4 -100.85 126.45 -103.1Q126.45 -103.2 126.35 -103.2L124.75 -102.95M132.65 -111.95Q133.7 -113.1 133.7 -114.95 133.7 -116.65 132.75 -117.8 131.7 -119 129.9 -119 128.15 -119 127.05 -117.8 126 -116.65 126 -114.9 126 -113.2 126.95 -112.05 128 -110.8 129.85 -110.8 131.55 -110.8 132.65 -111.95M129.8 -117.4Q130.75 -117.4 131.3 -116.65 131.75 -115.95 131.75 -114.9 131.75 -113.7 131.2 -113.05 130.7 -112.4 129.9 -112.4 129 -112.4 128.5 -113.1 127.95 -113.8 127.95 -114.9 127.95 -116.05 128.5 -116.7 129 -117.4 129.8 -117.4M141.4 -117.85Q140.35 -119 138.45 -119 137.15 -119 135.2 -118.35 135.15 -118.35 135.15 -118.3L135.2 -107.75Q135.2 -107.65 135.3 -107.65L137.05 -107.8Q137.15 -107.85 137.15 -107.95L137.15 -110.8 137.6 -110.8Q139.6 -110.8 140.9 -111.9 142.4 -113.1 142.4 -115.15 142.4 -116.8 141.4 -117.85M139.6 -113Q138.85 -112.4 137.8 -112.4 137.3 -112.4 137.15 -112.45L137.15 -117.2Q137.65 -117.35 138.3 -117.35 139.3 -117.35 139.85 -116.75 140.45 -116.1 140.45 -115.05 140.45 -113.75 139.6 -113M118.6 -100.7Q118.6 -100.85 118.5 -100.85L116.8 -100.85Q116.65 -100.85 116.65 -100.7L116.65 -95.05Q116.05 -94.45 115.2 -94.45 113.85 -94.45 113.85 -96.05L113.85 -100.7Q113.85 -100.85 113.7 -100.85L112.05 -100.85Q111.9 -100.85 111.9 -100.7L111.9 -95.85Q111.9 -92.8 114.6 -92.8 115.95 -92.8 116.8 -93.6L116.95 -93.05Q116.95 -92.95 117.1 -92.95L118.55 -92.95Q118.7 -92.95 118.7 -93.05 118.6 -94.05 118.6 -94.7L118.6 -100.7M106.6 -101Q104.85 -101 103.75 -99.8 102.7 -98.65 102.7 -96.9 102.7 -95.2 103.65 -94.05 104.7 -92.8 106.55 -92.8 108.25 -92.8 109.35 -93.95 110.4 -95.1 110.4 -96.95 110.4 -98.65 109.45 -99.8 108.4 -101 106.6 -101M108 -98.65Q108.45 -97.95 108.45 -96.9 108.45 -95.7 107.9 -95.05 107.4 -94.4 106.6 -94.4 105.7 -94.4 105.2 -95.1 104.65 -95.8 104.65 -96.9 104.65 -98.05 105.2 -98.7 105.7 -99.4 106.5 -99.4 107.45 -99.4 108 -98.65M103.2 -122.35Q103.05 -122.35 103.05 -122.2L103.05 -112.85Q103.05 -110.8 104.9 -110.8 105.55 -110.8 105.8 -110.9 105.95 -110.95 105.95 -111.1L105.95 -112.3Q105.95 -112.4 105.85 -112.4L105.55 -112.35Q105 -112.35 105 -113.05L105 -122.2Q105 -122.35 104.85 -122.35L103.2 -122.35M109.2 -122.2Q109.2 -122.35 109.05 -122.35L107.4 -122.35Q107.25 -122.35 107.25 -122.2L107.25 -112.85Q107.25 -110.8 109.1 -110.8 109.75 -110.8 110 -110.9 110.15 -110.95 110.15 -111.1L110.15 -112.3Q110.15 -112.4 110.05 -112.4L109.75 -112.35Q109.2 -112.35 109.2 -113.05L109.2 -122.2M119.65 -118.5Q119.65 -118.6 119.55 -118.7 118.9 -119 117.55 -119 116.1 -119 115.3 -118.3 114.55 -117.6 114.55 -116.65 114.55 -115.75 115.1 -115.2 115.6 -114.6 116.9 -114.15 118.2 -113.6 118.2 -113.05 118.2 -112.35 117 -112.35 115.7 -112.35 114.7 -113 114.55 -113.05 114.55 -112.95L114.55 -111.4Q114.55 -111.3 114.7 -111.25 115.45 -110.8 116.95 -110.8 118.4 -110.8 119.25 -111.45 120.1 -112.1 120.1 -113.25 120.1 -114.1 119.55 -114.7 119 -115.25 117.65 -115.75 116.35 -116.25 116.35 -116.75 116.35 -117.45 117.5 -117.45 118.65 -117.45 119.5 -117 119.65 -116.95 119.65 -117.05L119.65 -118.5M120.7 -118.85Q120.55 -118.85 120.55 -118.7L120.55 -117.35Q120.55 -117.25 120.7 -117.2L121.7 -117.2 121.7 -113Q121.7 -110.8 123.8 -110.8 124.55 -110.8 125.15 -111 125.25 -111.05 125.25 -111.2L125.25 -112.35Q125.25 -112.5 125.15 -112.45L124.55 -112.4Q123.6 -112.4 123.6 -113.45L123.6 -117.2 125.2 -117.2Q125.3 -117.2 125.3 -117.35L125.3 -118.7Q125.3 -118.85 125.2 -118.85L123.65 -118.85 123.7 -121.1Q123.7 -121.2 123.6 -121.2L122 -120.95Q121.9 -120.95 121.85 -120.8 121.75 -120.2 121.7 -118.85L120.7 -118.85M94.7 -100.85Q94.55 -100.85 94.6 -100.7 95.9 -97.4 97.55 -93.35 97.6 -93.25 97.55 -93.1 96.7 -91.15 96 -89.8 96 -89.65 96.1 -89.65L97.85 -89.8Q98 -89.8 98.05 -89.9 100.65 -95.85 102.25 -100.7 102.25 -100.85 102.15 -100.85L100.5 -100.85Q100.35 -100.85 100.35 -100.75L98.5 -95.25Q98.15 -96.7 96.75 -100.75 96.7 -100.85 96.6 -100.85L94.7 -100.85M86.75 -99.2L87.7 -99.2 87.7 -93.05Q87.7 -92.95 87.85 -92.95L89.5 -92.95Q89.65 -92.95 89.65 -93.05L89.65 -99.2 91.05 -99.2Q91.2 -99.25 91.2 -99.35L91.2 -100.75Q91.2 -100.85 91.05 -100.85L89.65 -100.85 89.65 -101.35Q89.65 -102.8 90.7 -102.8L91.2 -102.75Q91.3 -102.75 91.3 -102.85L91.3 -104.25Q91.3 -104.35 91.2 -104.4 91 -104.5 90.45 -104.5 88.75 -104.5 88.05 -103.05 87.7 -102.3 87.7 -101.2L87.7 -100.85 86.75 -100.85Q86.65 -100.85 86.65 -100.75L86.65 -99.35Q86.65 -99.2 86.75 -99.2M83.75 -100.85Q83.6 -100.85 83.6 -100.7L83.6 -93.1Q83.6 -92.95 83.75 -92.95L85.4 -92.95Q85.55 -92.95 85.55 -93.05L85.55 -100.7Q85.55 -100.85 85.45 -100.85L83.75 -100.85M85.4 -102.2Q85.7 -102.5 85.7 -103 85.7 -103.5 85.4 -103.8 85.1 -104.1 84.6 -104.1 84.1 -104.1 83.8 -103.8 83.5 -103.5 83.5 -103 83.5 -102.5 83.8 -102.2 84.1 -101.9 84.6 -101.9 85.1 -101.9 85.4 -102.2M81.45 -121.35Q81.45 -121.45 81.35 -121.45L79.65 -121.45Q79.55 -121.45 79.55 -121.35L79.55 -111.1Q79.55 -110.95 79.65 -110.95L81.35 -110.95Q81.45 -110.95 81.45 -111.1L81.45 -121.35M101.05 -118.7Q101.05 -118.85 100.95 -118.85L99.25 -118.85Q99.1 -118.85 99.1 -118.7L99.1 -111.1Q99.1 -110.95 99.25 -110.95L100.9 -110.95Q101.05 -110.95 101.05 -111.05L101.05 -118.7M97.95 -118.7Q98 -118.85 97.85 -118.85L96.25 -118.85Q96.15 -118.85 96.1 -118.75 95.5 -116.45 94.75 -112.75L94.7 -112.75Q94.1 -115.95 93.35 -118.75 93.35 -118.85 93.25 -118.85L91.4 -118.85Q91.3 -118.85 91.25 -118.7 90.6 -116.2 89.8 -112.8L89.75 -112.8Q89.35 -115.3 88.45 -118.75 88.45 -118.85 88.35 -118.85L86.55 -118.85Q86.4 -118.85 86.45 -118.7L88.55 -111.05Q88.6 -110.95 88.75 -110.95L90.5 -110.95Q90.65 -110.95 90.65 -111.05 91.65 -114.6 92.2 -116.85 92.7 -114.35 93.55 -111.1 93.6 -110.95 93.75 -110.95L95.5 -110.95Q95.6 -110.95 95.7 -111.05L97.95 -118.7M101.2 -121Q101.2 -121.5 100.9 -121.8 100.6 -122.1 100.1 -122.1 99.6 -122.1 99.3 -121.8 99 -121.5 99 -121 99 -120.5 99.3 -120.2 99.6 -119.9 100.1 -119.9 100.6 -119.9 100.9 -120.2 101.2 -120.5 101.2 -121Z"/>
        <path fill="#FFF" stroke="none" d="M87.35 -68.4Q87.3 -68.55 87.2 -68.55L85.65 -68.55Q85.6 -68.55 85.6 -68.45 85.65 -67.8 85.65 -66.3L85.65 -60.75Q85.65 -60.65 85.8 -60.65L87.45 -60.65Q87.6 -60.65 87.6 -60.75L87.6 -65.95Q87.9 -66.3 88.55 -66.55 89.25 -66.8 90.05 -66.75 90.2 -66.75 90.2 -66.9L90.2 -68.6Q90.2 -68.7 90.05 -68.7 88.55 -68.7 87.5 -67.45 87.5 -68.05 87.35 -68.4M80.35 -68.7Q78.6 -68.7 77.5 -67.5 76.45 -66.35 76.45 -64.6 76.45 -62.9 77.4 -61.75 78.45 -60.5 80.3 -60.5 82 -60.5 83.1 -61.65 84.15 -62.8 84.15 -64.65 84.15 -66.35 83.2 -67.5 82.15 -68.7 80.35 -68.7M80.35 -62.1Q79.45 -62.1 78.95 -62.8 78.4 -63.5 78.4 -64.6 78.4 -65.75 78.95 -66.4 79.45 -67.1 80.25 -67.1 81.2 -67.1 81.75 -66.35 82.2 -65.65 82.2 -64.6 82.2 -63.4 81.65 -62.75 81.15 -62.1 80.35 -62.1Z"/>
        <path fill="#FFF" stroke="none" d="M56.9 -76.15Q51.55 -81.5 43.95 -81.5 36.35 -81.5 31 -76.15 25.65 -70.75 25.65 -63.15 25.65 -55.55 31 -50.2L43.85 -37.35Q49.2 -32 56.8 -32 64.4 -32 69.75 -37.35 75.15 -42.7 75.15 -50.3 75.15 -57.9 69.75 -63.3L56.9 -76.15Z"/>
        <path id="Layer11_0_1_STROKES" stroke="#273C4F" stroke-width="3.95" stroke-linejoin="miter" stroke-linecap="butt" stroke-miterlimit="4" fill="none" d="M32.4 -74.7Q37.2 -79.5 43.95 -79.5 50.75 -79.5 55.5 -74.7L68.35 -61.85Q73.15 -57.1 73.15 -50.3 73.15 -43.55 68.35 -38.8 63.6 -34 56.8 -34 50.05 -34 45.25 -38.8L32.4 -51.6Q27.65 -56.4 27.65 -63.15 27.65 -69.95 32.4 -74.7Z"/>
        <g transform="matrix(.707 .707 -.707 .707 -26.9 -60.2)" id="Layer9_0_FILL">
          <path fill="#58DA7F" fill-opacity=".968" stroke="none" d="M50.3 -56.7L43.4 -56.7Q41.55 -56.7 40.2 -55.4 38.9 -54.05 38.9 -52.2 38.9 -50.35 40.2 -49.05 41.55 -47.7 43.4 -47.7L50.3 -47.7Q52.15 -47.7 53.45 -49.05 54.8 -50.35 54.8 -52.2 54.8 -54.05 53.45 -55.4 52.15 -56.7 50.3 -56.7Z"/>
        </g>
        <use xlink:href="#ball" transform="translate(41.4 -57.4)">
          <animateTransform attributeName="transform" additive="replace" type="translate" begin="5.733s" repeatCount="indefinite" dur="2.867s" keyTimes="0;.26699;.419;1" values="41.4,-57.4;41.4,-57.4;36.5,-62.3;36.5,-62.3"/>
          <animate attributeName="opacity" begin="5.733s" repeatCount="indefinite" dur="2.867s" keyTimes="0;.16299;.221;.45299;.535;1" values="0;0;1;1;0;0"/>
        </use>
        <use xlink:href="#shadow" transform="matrix(1.097 0 0 1.097 96.85 -35.15)">
          <animateTransform attributeName="transform" additive="replace" type="translate" begin="5.733s" repeatCount="indefinite" dur="2.867s" keyTimes="0;.66299;.663;.744;.89499;.977;1" values="122.367,-42.836;122.367,-42.836;122.359,-42.772;122.401,-42.819;122.401,-42.819;122.359,-42.772;122.359,-42.772"/>
          <animateTransform attributeName="transform" additive="sum" type="scale" begin="5.733s" repeatCount="indefinite" dur="2.867s" keyTimes="0;.66299;.744;.89499;.977;1" values="1.097,1.097;1.097,1.097;1.017,1.017;1.017,1.017;1.097,1.097;1.097,1.097"/>
          <animateTransform attributeName="transform" additive="sum" type="translate" begin="5.733s" repeatCount="indefinite" dur="2.867s" keyTimes="0;.66299;.663;.744;.89499;.977;1" values="-23.3,7.05;-23.3,7.05;-23.2,6.9;-23.25,6.9;-23.25,6.9;-23.2,6.9;-23.2,6.9"/>
        </use>
        <use xlink:href="#tab" transform="translate(99.05 -43)">
          <animateTransform attributeName="transform" additive="replace" type="translate" begin="5.733s" repeatCount="indefinite" dur="2.867s" keyTimes="0;.66299;.744;.89499;.977;1" values="99.05,-43;99.05,-43;99.05,-40.5;99.05,-40.5;99.05,-43;99.05,-43"/>
        </use>
      </g>
      <animate attributeName="display" repeatCount="indefinite" dur="14.567s" keyTimes="0;.394;.984;1" values="none;inline;none;none"/>
    </g>
    <g>
      <g id="bubble1" transform="translate(3.75 138.5)">
        <animateTransform attributeName="transform" additive="replace" type="translate" repeatCount="indefinite" dur="14.567s" keyTimes="0;.37499;.375;.391;1" values="86,71.4;86,71.4;3.5,137.4;4.506,136.903;4.506,136.903"/>
        <animateTransform attributeName="transform" additive="sum" type="scale" repeatCount="indefinite" dur="14.567s" keyTimes="0;.37499;.391;1" values="1,1;1,1;.164,.164;.164,.164"/>
        <animateTransform attributeName="transform" additive="sum" type="translate" repeatCount="indefinite" dur="14.567s" keyTimes="0;.37499;.375;.391;1" values="-82.25,67.1;-82.25,67.1;.25,1.1;-.95,1.2;-.95,1.2"/>
        <path fill="#000" fill-opacity=".2" stroke="none" d="M161.15 -128.5Q158.85 -130.85 155.5 -130.85L22.5 -130.85Q19.2 -130.85 16.85 -128.5 14.5 -126.15 14.5 -122.85L14.5 -19.85Q14.5 -18.7 6.95 -9.6 -.6 -.55 .05 -.05 .65 .4 11.2 -5.7 21.75 -11.85 22.5 -11.85L155.5 -11.85Q158.85 -11.85 161.15 -14.2 163.5 -16.55 163.5 -19.85L163.5 -122.85Q163.5 -126.15 161.15 -128.5Z"/>
        <path fill="#000" fill-opacity=".2" stroke="none" d="M160.15 -129.5Q157.85 -131.85 154.5 -131.85L21.5 -131.85Q18.2 -131.85 15.85 -129.5 13.5 -127.15 13.5 -123.85L13.5 -20.85Q13.5 -19.7 6.4 -10.15 -.75 -.65 0 -.05 .7 .5 10.75 -6.15 20.75 -12.85 21.5 -12.85L154.5 -12.85Q157.85 -12.85 160.15 -15.2 162.5 -17.55 162.5 -20.85L162.5 -123.85Q162.5 -127.15 160.15 -129.5Z"/>
        <path fill="#000" fill-opacity=".2" stroke="none" d="M159.1 -130.5Q156.8 -132.85 153.45 -132.85L20.45 -132.85Q17.15 -132.85 14.8 -130.5 12.45 -128.15 12.45 -124.85L12.45 -21.85Q12.45 -20.7 5.7 -10.55 -.7 -.85 .15 -.15 1.05 .5 10.2 -6.55 19.7 -13.85 20.45 -13.85L153.45 -13.85Q156.8 -13.85 159.1 -16.2 161.45 -18.55 161.45 -21.85L161.45 -124.85Q161.45 -128.15 159.1 -130.5Z"/>
        <path fill="#40B4B9" stroke="none" d="M158.2 -131.85Q155.9 -134.2 152.55 -134.2L19.55 -134.2Q16.25 -134.2 13.9 -131.85 11.55 -129.5 11.55 -126.2L11.55 -23.2Q11.55 -22.1 5.25 -11.25 -.75 -.95 .1 -.25 1 .4 9.75 -7.25 18.75 -15.2 19.55 -15.2L152.55 -15.2Q155.9 -15.2 158.2 -17.55 160.55 -19.9 160.55 -23.2L160.55 -126.2Q160.55 -129.5 158.2 -131.85Z"/>
        <use xlink:href="#help_01.svg_Layer-1_Discover-nested-elements-using:-" transform="translate(32.3 -124.5)"/>
        <use xlink:href="#help_01.svg_Layer-1_Discover-nested-elements-using:-" transform="translate(76.9 -71.5)"/>
        <path fill="#FFF" stroke="none" d="M90.25 -68.6Q90.25 -68.7 90.1 -68.7 88.6 -68.7 87.55 -67.45 87.55 -68.05 87.4 -68.4 87.35 -68.55 87.25 -68.55L85.7 -68.55Q85.65 -68.55 85.65 -68.45 85.7 -67.8 85.7 -66.3L85.7 -60.75Q85.7 -60.65 85.85 -60.65L87.5 -60.65Q87.65 -60.65 87.65 -60.75L87.65 -65.95Q87.95 -66.3 88.6 -66.55 89.3 -66.8 90.1 -66.75 90.25 -66.75 90.25 -66.9L90.25 -68.6M137.3 -94.05Q138.5 -94.05 138.5 -95.25 138.5 -95.75 138.15 -96.1 137.8 -96.45 137.3 -96.45 136.8 -96.45 136.45 -96.1 136.1 -95.75 136.1 -95.25 136.1 -94.7 136.45 -94.35 136.75 -94.05 137.3 -94.05M80.4 -68.7Q78.65 -68.7 77.55 -67.5 76.5 -66.35 76.5 -64.6 76.5 -62.9 77.45 -61.75 78.5 -60.5 80.35 -60.5 82.05 -60.5 83.15 -61.65 84.2 -62.8 84.2 -64.65 84.2 -66.35 83.25 -67.5 82.2 -68.7 80.4 -68.7M80.4 -62.1Q79.5 -62.1 79 -62.8 78.45 -63.5 78.45 -64.6 78.45 -65.75 79 -66.4 79.5 -67.1 80.3 -67.1 81.25 -67.1 81.8 -66.35 82.25 -65.65 82.25 -64.6 82.25 -63.4 81.7 -62.75 81.2 -62.1 80.4 -62.1M74 -101.15Q73.1 -102.25 71.45 -102.25 69.75 -102.25 68.7 -101 67.7 -99.8 67.7 -98.05 67.7 -96.4 68.6 -95.3 69.65 -94.05 71.65 -94.05 73.1 -94.05 74.05 -94.5 74.15 -94.55 74.15 -94.7L74.15 -96Q74.15 -96.15 74.05 -96.05 73.15 -95.7 72.1 -95.7 70.9 -95.7 70.3 -96.3 69.7 -96.8 69.65 -97.7L72.9 -97.7Q74.25 -97.7 74.55 -97.75 74.65 -97.8 74.7 -97.9 74.75 -98.1 74.75 -98.85 74.75 -100.2 74 -101.15M72.95 -99.2L72.95 -99.1 69.65 -99.1Q69.95 -100.7 71.4 -100.7 72.2 -100.7 72.6 -100.15 72.95 -99.7 72.95 -99.2M65.8 -120.2Q64.05 -120.2 62.95 -119 61.9 -117.85 61.9 -116.1 61.9 -114.4 62.85 -113.25 63.9 -112 65.75 -112 67.45 -112 68.55 -113.15 69.6 -114.3 69.6 -116.15 69.6 -117.85 68.65 -119 67.6 -120.2 65.8 -120.2M64.4 -117.9Q64.9 -118.6 65.7 -118.6 66.65 -118.6 67.2 -117.85 67.65 -117.15 67.65 -116.1 67.65 -114.9 67.1 -114.25 66.6 -113.6 65.8 -113.6 64.9 -113.6 64.4 -114.3 63.85 -115 63.85 -116.1 63.85 -117.25 64.4 -117.9M77.6 -120.05L76 -120.05Q75.9 -120.05 75.85 -119.95 74.2 -114.8 74 -113.95 73.65 -115.35 72.25 -119.95 72.2 -120.05 72.1 -120.05L70.3 -120.05Q70.15 -120.05 70.2 -119.9L72.8 -112.25Q72.9 -112.15 73 -112.15L74.8 -112.15Q74.95 -112.15 75 -112.25L77.7 -119.9Q77.75 -120.05 77.6 -120.05M56.65 -99.95Q57.35 -100.55 58.15 -100.55 59.5 -100.55 59.5 -99L59.5 -94.35Q59.5 -94.2 59.65 -94.2L61.3 -94.2Q61.45 -94.2 61.45 -94.3L61.4 -99.95Q62.05 -100.6 62.95 -100.6 64.3 -100.6 64.3 -98.95L64.3 -94.35Q64.3 -94.2 64.45 -94.2L66.1 -94.2Q66.25 -94.2 66.25 -94.3L66.25 -99.15Q66.25 -100.8 65.35 -101.6 64.7 -102.25 63.5 -102.25 62.15 -102.25 60.9 -101.2 60.25 -102.25 58.85 -102.25 57.55 -102.25 56.5 -101.35L56.4 -102Q56.35 -102.1 56.25 -102.1L54.75 -102.1Q54.6 -102.1 54.65 -101.95L54.7 -94.35Q54.7 -94.2 54.85 -94.2L56.5 -94.2Q56.65 -94.2 56.65 -94.3L56.65 -99.95M49.95 -102.25Q48.25 -102.25 47.2 -101 46.2 -99.8 46.2 -98.05 46.2 -96.4 47.1 -95.3 48.15 -94.05 50.15 -94.05 51.6 -94.05 52.55 -94.5 52.65 -94.55 52.65 -94.7L52.65 -96Q52.65 -96.15 52.55 -96.05 51.65 -95.7 50.6 -95.7 49.4 -95.7 48.8 -96.3 48.2 -96.8 48.15 -97.7L51.4 -97.7Q52.75 -97.7 53.05 -97.75 53.15 -97.8 53.2 -97.9 53.25 -98.1 53.25 -98.85 53.25 -100.2 52.5 -101.15 51.6 -102.25 49.95 -102.25M48.15 -99.1Q48.45 -100.7 49.9 -100.7 50.7 -100.7 51.1 -100.15 51.45 -99.7 51.45 -99.2L51.45 -99.1 48.15 -99.1M44.45 -105.45Q44.45 -105.6 44.3 -105.6L42.65 -105.6Q42.5 -105.6 42.5 -105.45L42.5 -96.1Q42.5 -94.05 44.35 -94.05 45 -94.05 45.25 -94.15 45.4 -94.2 45.4 -94.35L45.4 -95.55Q45.4 -95.65 45.3 -95.65L45 -95.6Q44.45 -95.6 44.45 -96.3L44.45 -105.45M47.15 -119.9Q47.15 -120.05 47.05 -120.05L45.35 -120.05Q45.2 -120.05 45.2 -119.9L45.2 -112.3Q45.2 -112.15 45.35 -112.15L47 -112.15Q47.15 -112.15 47.15 -112.25L47.15 -119.9M47 -123Q46.7 -123.3 46.2 -123.3 45.7 -123.3 45.4 -123 45.1 -122.7 45.1 -122.2 45.1 -121.7 45.4 -121.4 45.7 -121.1 46.2 -121.1 46.7 -121.1 47 -121.4 47.3 -121.7 47.3 -122.2 47.3 -122.7 47 -123M51.55 -118.65Q52.7 -118.65 53.55 -118.2 53.7 -118.15 53.7 -118.25L53.7 -119.7Q53.7 -119.8 53.6 -119.9 52.95 -120.2 51.6 -120.2 50.15 -120.2 49.35 -119.5 48.6 -118.8 48.6 -117.85 48.6 -116.95 49.15 -116.4 49.65 -115.8 50.95 -115.35 52.25 -114.8 52.25 -114.25 52.25 -113.55 51.05 -113.55 49.75 -113.55 48.75 -114.2 48.6 -114.25 48.6 -114.15L48.6 -112.6Q48.6 -112.5 48.75 -112.45 49.5 -112 51 -112 52.45 -112 53.3 -112.65 54.15 -113.3 54.15 -114.45 54.15 -115.3 53.6 -115.9 53.05 -116.45 51.7 -116.95 50.4 -117.45 50.4 -117.95 50.4 -118.65 51.55 -118.65M59.45 -120.2Q57.5 -120.2 56.25 -119 55.05 -117.85 55.05 -116.05 55.05 -114.3 56.15 -113.15 57.3 -112 59.2 -112 60.35 -112 60.95 -112.25 61.05 -112.25 61.05 -112.4L61.05 -113.8Q61.05 -113.9 60.95 -113.9 60.5 -113.7 59.55 -113.7 58.5 -113.7 57.85 -114.25 57.05 -114.9 57.05 -116.15 57.05 -117.25 57.75 -117.9 58.4 -118.55 59.55 -118.55 60.35 -118.55 60.9 -118.35 61.05 -118.3 61.05 -118.4L61.05 -119.85Q61.05 -120 60.95 -120 60.45 -120.2 59.45 -120.2M40.3 -101.15Q39.4 -102.25 37.75 -102.25 36.05 -102.25 35 -101 34 -99.8 34 -98.05 34 -96.4 34.9 -95.3 35.95 -94.05 37.95 -94.05 39.4 -94.05 40.35 -94.5 40.45 -94.55 40.45 -94.7L40.45 -96Q40.45 -96.15 40.35 -96.05 39.45 -95.7 38.4 -95.7 37.2 -95.7 36.6 -96.3 36 -96.8 35.95 -97.7L39.2 -97.7Q40.55 -97.7 40.85 -97.75 40.95 -97.8 41 -97.9 41.05 -98.1 41.05 -98.85 41.05 -100.2 40.3 -101.15M35.95 -99.1Q36.25 -100.7 37.7 -100.7 38.5 -100.7 38.9 -100.15 39.25 -99.7 39.25 -99.2L39.25 -99.1 35.95 -99.1M34.85 -112.3Q34.85 -112.15 34.95 -112.15L37.95 -112.1Q40.25 -112.1 41.8 -113.4 43.6 -114.9 43.6 -117.6 43.6 -119.9 42.2 -121.25 40.7 -122.7 37.95 -122.7L34.95 -122.65Q34.85 -122.65 34.85 -122.5L34.85 -112.3M36.75 -121L37.95 -121Q39.65 -121 40.6 -120.15 41.65 -119.25 41.65 -117.55 41.65 -115.75 40.6 -114.75 39.6 -113.8 37.85 -113.8L36.75 -113.8 36.75 -121M136.1 -100.4Q136.1 -99.85 136.45 -99.5 136.75 -99.2 137.3 -99.2 138.5 -99.2 138.5 -100.4 138.5 -100.9 138.15 -101.25 137.8 -101.55 137.3 -101.55 136.8 -101.55 136.45 -101.25 136.1 -100.9 136.1 -100.4M130.8 -102.25Q129.3 -102.25 128.45 -101.45 127.6 -100.7 127.6 -99.5 127.6 -98.15 128.7 -97.45 128.4 -96.95 128.4 -96.4 128.4 -95.7 128.75 -95.2 127.25 -93.9 127.25 -93.1 127.25 -92.15 128.15 -91.45 129.2 -90.65 131 -90.65 132.85 -90.65 134 -91.5 135.1 -92.35 135.1 -93.6 135.1 -95.7 131.95 -95.9L130.35 -95.95Q130.15 -96.2 130.15 -96.45 130.1 -96.65 130.2 -96.9L130.8 -96.85Q132.15 -96.85 133 -97.5 133.9 -98.2 133.9 -99.45 133.9 -100.15 133.55 -100.65L134.8 -100.6Q134.9 -100.6 134.9 -100.7L134.9 -102Q134.9 -102.1 134.8 -102.1L132.55 -102.1 132.2 -102.15Q131.6 -102.25 130.8 -102.25M129.5 -99.55Q129.5 -100.15 129.85 -100.5 130.2 -100.85 130.8 -100.85 132.05 -100.85 132.05 -99.5 132.05 -98.25 130.8 -98.25 130.15 -98.25 129.8 -98.65 129.5 -98.95 129.5 -99.55M133.35 -93.3Q133.35 -92.8 132.8 -92.45 132.2 -92.05 131.15 -92.05 130.2 -92.05 129.6 -92.45 129.05 -92.8 129.05 -93.25 129.05 -93.45 129.25 -93.75 129.5 -94.1 129.8 -94.3L131.55 -94.25Q133.35 -94.15 133.35 -93.3M129.95 -119.1Q129.05 -120.2 127.4 -120.2 125.7 -120.2 124.65 -118.95 123.65 -117.75 123.65 -116 123.65 -114.35 124.55 -113.25 125.6 -112 127.6 -112 129.05 -112 130 -112.45 130.1 -112.5 130.1 -112.65L130.1 -113.95Q130.1 -114.1 130 -114 129.1 -113.65 128.05 -113.65 126.85 -113.65 126.25 -114.25 125.65 -114.75 125.6 -115.65L128.85 -115.65Q130.2 -115.65 130.5 -115.7 130.6 -115.75 130.65 -115.85 130.7 -116.05 130.7 -116.8 130.7 -118.15 129.95 -119.1M127.35 -118.65Q128.15 -118.65 128.55 -118.1 128.9 -117.65 128.9 -117.15L128.9 -117.05 125.6 -117.05Q125.9 -118.65 127.35 -118.65M138.8 -123.45Q138.8 -123.55 138.75 -123.55L137 -123.55Q136.9 -123.55 136.9 -123.45L136.9 -120.15 136.2 -120.2Q134.15 -120.2 132.9 -119 131.65 -117.8 131.65 -116 131.65 -114.1 132.85 -113 133.95 -112 135.75 -112 137.35 -112 138.8 -112.6 138.9 -112.65 138.9 -112.75L138.8 -113.8 138.8 -123.45M134.35 -117.95Q135.05 -118.6 136.15 -118.6 136.6 -118.6 136.9 -118.45L136.9 -113.8Q136.5 -113.65 135.95 -113.65 134.95 -113.65 134.35 -114.25 133.65 -114.9 133.65 -116.1 133.65 -117.25 134.35 -117.95M120.9 -101.35L120.8 -101.95Q120.75 -102.1 120.6 -102.1L119.15 -102.1Q119.05 -102.1 119.05 -101.95L119.1 -94.3Q119.1 -94.2 119.25 -94.2L120.9 -94.2Q121.05 -94.2 121.05 -94.3L121.05 -99.9Q121.65 -100.55 122.6 -100.55 124 -100.55 124 -98.9L124 -94.35Q124 -94.2 124.1 -94.2L125.8 -94.2Q125.9 -94.2 125.9 -94.35L125.9 -99.1Q125.9 -100.8 125 -101.6 124.35 -102.25 123.25 -102.25 121.95 -102.25 120.9 -101.35M115.3 -102.1Q115.15 -102.1 115.15 -101.95L115.15 -94.35Q115.15 -94.2 115.3 -94.2L116.95 -94.2Q117.1 -94.2 117.1 -94.3L117.1 -101.95Q117.1 -102.1 117 -102.1L115.3 -102.1M115.35 -103.45Q115.65 -103.15 116.15 -103.15 116.65 -103.15 116.95 -103.45 117.25 -103.75 117.25 -104.25 117.25 -104.75 116.95 -105.05 116.65 -105.35 116.15 -105.35 115.65 -105.35 115.35 -105.05 115.05 -104.75 115.05 -104.25 115.05 -103.75 115.35 -103.45M111.2 -102.25Q109.75 -102.25 108.95 -101.55 108.2 -100.85 108.2 -99.9 108.2 -99 108.75 -98.45 109.25 -97.85 110.55 -97.4 111.85 -96.85 111.85 -96.3 111.85 -95.6 110.65 -95.6 109.35 -95.6 108.35 -96.25 108.2 -96.3 108.2 -96.2L108.2 -94.65Q108.2 -94.55 108.35 -94.5 109.1 -94.05 110.6 -94.05 112.05 -94.05 112.9 -94.7 113.75 -95.35 113.75 -96.5 113.75 -97.35 113.2 -97.95 112.65 -98.5 111.3 -99 110 -99.5 110 -100 110 -100.7 111.15 -100.7 112.3 -100.7 113.15 -100.25 113.3 -100.2 113.3 -100.3L113.3 -101.75Q113.3 -101.85 113.2 -101.95 112.55 -102.25 111.2 -102.25M110.55 -119.1Q109.65 -120.2 108 -120.2 106.3 -120.2 105.25 -118.95 104.25 -117.75 104.25 -116 104.25 -114.35 105.15 -113.25 106.2 -112 108.2 -112 109.65 -112 110.6 -112.45 110.7 -112.5 110.7 -112.65L110.7 -113.95Q110.7 -114.1 110.6 -114 109.7 -113.65 108.65 -113.65 107.45 -113.65 106.85 -114.25 106.25 -114.75 106.2 -115.65L109.45 -115.65Q110.8 -115.65 111.1 -115.7 111.2 -115.75 111.25 -115.85 111.3 -116.05 111.3 -116.8 111.3 -118.15 110.55 -119.1M107.95 -118.65Q108.75 -118.65 109.15 -118.1 109.5 -117.65 109.5 -117.15L109.5 -117.05 106.2 -117.05Q106.5 -118.65 107.95 -118.65M117.3 -119.7Q117.3 -119.8 117.2 -119.9 116.55 -120.2 115.2 -120.2 113.75 -120.2 112.95 -119.5 112.2 -118.8 112.2 -117.85 112.2 -116.95 112.75 -116.4 113.25 -115.8 114.55 -115.35 115.85 -114.8 115.85 -114.25 115.85 -113.55 114.65 -113.55 113.35 -113.55 112.35 -114.2 112.2 -114.25 112.2 -114.15L112.2 -112.6Q112.2 -112.5 112.35 -112.45 113.1 -112 114.6 -112 116.05 -112 116.9 -112.65 117.75 -113.3 117.75 -114.45 117.75 -115.3 117.2 -115.9 116.65 -116.45 115.3 -116.95 114 -117.45 114 -117.95 114 -118.65 115.15 -118.65 116.3 -118.65 117.15 -118.2 117.3 -118.15 117.3 -118.25L117.3 -119.7M119.65 -122.15Q119.55 -122.15 119.5 -122 119.4 -121.4 119.35 -120.05L118.35 -120.05Q118.2 -120.05 118.2 -119.9L118.2 -118.55Q118.2 -118.45 118.35 -118.4L119.35 -118.4 119.35 -114.2Q119.35 -112 121.45 -112 122.2 -112 122.8 -112.2 122.9 -112.25 122.9 -112.4L122.9 -113.55Q122.9 -113.7 122.8 -113.65L122.2 -113.6Q121.25 -113.6 121.25 -114.65L121.25 -118.4 122.85 -118.4Q122.95 -118.4 122.95 -118.55L122.95 -119.9Q122.95 -120.05 122.85 -120.05L121.3 -120.05 121.35 -122.3Q121.35 -122.4 121.25 -122.4L119.65 -122.15M100.2 -102.1Q100.05 -102.1 100.05 -101.95L100.05 -97.1Q100.05 -94.05 102.75 -94.05 104.1 -94.05 104.95 -94.85L105.1 -94.3Q105.1 -94.2 105.25 -94.2L106.7 -94.2Q106.85 -94.2 106.85 -94.3 106.75 -95.3 106.75 -95.95L106.75 -101.95Q106.75 -102.1 106.65 -102.1L104.95 -102.1Q104.8 -102.1 104.8 -101.95L104.8 -96.3Q104.2 -95.7 103.35 -95.7 102 -95.7 102 -97.3L102 -101.95Q102 -102.1 101.85 -102.1L100.2 -102.1M90.2 -101.55Q89.45 -100.85 89.45 -99.9 89.45 -99 90 -98.45 90.5 -97.85 91.8 -97.4 93.1 -96.85 93.1 -96.3 93.1 -95.6 91.9 -95.6 90.6 -95.6 89.6 -96.25 89.45 -96.3 89.45 -96.2L89.45 -94.65Q89.45 -94.55 89.6 -94.5 90.35 -94.05 91.85 -94.05 93.3 -94.05 94.15 -94.7 95 -95.35 95 -96.5 95 -97.35 94.45 -97.95 93.9 -98.5 92.55 -99 91.25 -99.5 91.25 -100 91.25 -100.7 92.4 -100.7 93.55 -100.7 94.4 -100.25 94.55 -100.2 94.55 -100.3L94.55 -101.75Q94.55 -101.85 94.45 -101.95 93.8 -102.25 92.45 -102.25 91 -102.25 90.2 -101.55M83 -99.1Q83 -100.8 82.1 -101.6 81.45 -102.25 80.35 -102.25 79.05 -102.25 78 -101.35L77.9 -101.95Q77.85 -102.1 77.7 -102.1L76.25 -102.1Q76.15 -102.1 76.15 -101.95L76.2 -94.3Q76.2 -94.2 76.35 -94.2L78 -94.2Q78.15 -94.2 78.15 -94.3L78.15 -99.9Q78.75 -100.55 79.7 -100.55 81.1 -100.55 81.1 -98.9L81.1 -94.35Q81.1 -94.2 81.2 -94.2L82.9 -94.2Q83 -94.2 83 -94.35L83 -99.1M84.2 -100.45L85.2 -100.45 85.2 -96.25Q85.2 -94.05 87.3 -94.05 88.05 -94.05 88.65 -94.25 88.75 -94.3 88.75 -94.45L88.75 -95.6Q88.75 -95.75 88.65 -95.7L88.05 -95.65Q87.1 -95.65 87.1 -96.7L87.1 -100.45 88.7 -100.45Q88.8 -100.45 88.8 -100.6L88.8 -101.95Q88.8 -102.1 88.7 -102.1L87.15 -102.1 87.2 -104.35Q87.2 -104.45 87.1 -104.45L85.5 -104.2Q85.4 -104.2 85.35 -104.05 85.25 -103.45 85.2 -102.1L84.2 -102.1Q84.05 -102.1 84.05 -101.95L84.05 -100.6Q84.05 -100.5 84.2 -100.45M84.55 -119.1Q83.65 -120.2 82 -120.2 80.3 -120.2 79.25 -118.95 78.25 -117.75 78.25 -116 78.25 -114.35 79.15 -113.25 80.2 -112 82.2 -112 83.65 -112 84.6 -112.45 84.7 -112.5 84.7 -112.65L84.7 -113.95Q84.7 -114.1 84.6 -114 83.7 -113.65 82.65 -113.65 81.45 -113.65 80.85 -114.25 80.25 -114.75 80.2 -115.65L83.45 -115.65Q84.8 -115.65 85.1 -115.7 85.2 -115.75 85.25 -115.85 85.3 -116.05 85.3 -116.8 85.3 -118.15 84.55 -119.1M81.95 -118.65Q82.75 -118.65 83.15 -118.1 83.5 -117.65 83.5 -117.15L83.5 -117.05 80.2 -117.05Q80.5 -118.65 81.95 -118.65M91.3 -120.1Q91.3 -120.2 91.15 -120.2 89.65 -120.2 88.6 -118.95 88.6 -119.55 88.45 -119.9 88.4 -120.05 88.3 -120.05L86.75 -120.05Q86.7 -120.05 86.7 -119.95 86.75 -119.3 86.75 -117.8L86.75 -112.25Q86.75 -112.15 86.9 -112.15L88.55 -112.15Q88.7 -112.15 88.7 -112.25L88.7 -117.45Q89 -117.8 89.65 -118.05 90.35 -118.3 91.15 -118.25 91.3 -118.25 91.3 -118.4L91.3 -120.1M97.65 -119.9Q97.6 -120.05 97.45 -120.05L96 -120.05Q95.9 -120.05 95.9 -119.9L95.95 -112.25Q95.95 -112.15 96.1 -112.15L97.75 -112.15Q97.9 -112.15 97.9 -112.25L97.9 -117.85Q98.5 -118.5 99.45 -118.5 100.85 -118.5 100.85 -116.85L100.85 -112.3Q100.85 -112.15 100.95 -112.15L102.65 -112.15Q102.75 -112.15 102.75 -112.3L102.75 -117.05Q102.75 -118.75 101.85 -119.55 101.2 -120.2 100.1 -120.2 98.8 -120.2 97.75 -119.3L97.65 -119.9Z"/>
        <path fill="#FFF" stroke="none" d="M56.85 -76.15Q51.5 -81.5 43.9 -81.5 36.3 -81.5 30.95 -76.15 25.6 -70.75 25.6 -63.15 25.6 -55.55 30.95 -50.2L43.8 -37.35Q49.15 -32 56.75 -32 64.35 -32 69.7 -37.35 75.1 -42.7 75.1 -50.3 75.1 -57.9 69.7 -63.3L56.85 -76.15Z"/>
        <path id="Layer3_0_1_STROKES" stroke="#273C4F" stroke-width="3.95" stroke-linejoin="miter" stroke-linecap="butt" stroke-miterlimit="4" fill="none" d="M32.35 -74.7Q37.15 -79.5 43.9 -79.5 50.7 -79.5 55.45 -74.7L68.3 -61.85Q73.1 -57.1 73.1 -50.3 73.1 -43.55 68.3 -38.8 63.55 -34 56.75 -34 50 -34 45.2 -38.8L32.35 -51.6Q27.6 -56.4 27.6 -63.15 27.6 -69.95 32.35 -74.7Z"/>
        <g transform="matrix(.707 .707 -.707 .707 -26.9 -60.2)" id="Layer1_0_FILL">
          <path fill="#58DA7F" fill-opacity=".968" stroke="none" d="M50.3 -56.7L43.4 -56.7Q41.55 -56.7 40.2 -55.4 38.9 -54.05 38.9 -52.2 38.9 -50.35 40.2 -49.05 41.55 -47.7 43.4 -47.7L50.3 -47.7Q52.15 -47.7 53.45 -49.05 54.8 -50.35 54.8 -52.2 54.8 -54.05 53.45 -55.4 52.15 -56.7 50.3 -56.7Z"/>
        </g>
        <use xlink:href="#ball" transform="translate(41.4 -57.4)">
          <animateTransform attributeName="transform" additive="replace" type="translate" repeatCount="indefinite" dur="2.867s" keyTimes="0;.26699;.419;1" values="41.4,-57.4;41.4,-57.4;36.5,-62.3;36.5,-62.3"/>
          <animate attributeName="opacity" repeatCount="indefinite" dur="2.867s" keyTimes="0;.16299;.221;.45299;.535;1" values="0;0;1;1;0;0"/>
        </use>
        <use xlink:href="#shadow" transform="matrix(1.097 0 0 1.097 96.8 -35.1)">
          <animateTransform attributeName="transform" additive="replace" type="translate" repeatCount="indefinite" dur="2.867s" keyTimes="0;.66299;.663;.744;.89499;.977;1" values="122.371,-42.786;122.371,-42.786;122.359,-42.772;122.401,-42.819;122.401,-42.819;122.359,-42.772;122.359,-42.772"/>
          <animateTransform attributeName="transform" additive="sum" type="scale" repeatCount="indefinite" dur="2.867s" keyTimes="0;.66299;.744;.89499;.977;1" values="1.097,1.097;1.097,1.097;1.017,1.017;1.017,1.017;1.097,1.097;1.097,1.097"/>
          <animateTransform attributeName="transform" additive="sum" type="translate" repeatCount="indefinite" dur="2.867s" keyTimes="0;.66299;.663;.744;.89499;.977;1" values="-23.35,7.05;-23.35,7.05;-23.2,6.9;-23.25,6.9;-23.25,6.9;-23.2,6.9;-23.2,6.9"/>
        </use>
        <use xlink:href="#tab" transform="translate(99.05 -43)">
          <animateTransform attributeName="transform" additive="replace" type="translate" repeatCount="indefinite" dur="2.867s" keyTimes="0;.66299;.744;.89499;.977;1" values="99.05,-43;99.05,-43;99.05,-40.5;99.05,-40.5;99.05,-43;99.05,-43"/>
        </use>
      </g>
      <animate attributeName="display" repeatCount="indefinite" dur="14.567s" keyTimes="0;.394;1" values="inline;none;none"/>
    </g>
  </g>
</svg>