<svg xmlns="http://www.w3.org/2000/svg" width="160.794" height="88.016" viewBox="0 0 160.794 88.016">
  <g id="Group_141575" data-name="Group 141575" transform="translate(-355.416 -239.163)">
    <path id="Path_579333" data-name="Path 579333" d="M8,50H141a8,8,0,0,1,8,8v53a8,8,0,0,1-8,8H8c-1.882,0-14,19.589-15.607,18.306S0,113.536,0,111V58A8,8,0,0,1,8,50Z" transform="translate(508.416 377.179) rotate(180)" opacity="0.147"/>
    <path id="Path_579332" data-name="Path 579332" d="M8,50H141a8,8,0,0,1,8,8v53a8,8,0,0,1-8,8H8c-1.882,0-14.743,18.572-16.346,17.288S0,113.536,0,111V58A8,8,0,0,1,8,50Z" transform="translate(507.416 376.179) rotate(180)" opacity="0.147"/>
    <path id="Path_579331" data-name="Path 579331" d="M8,50H141a8,8,0,0,1,8,8v53a8,8,0,0,1-8,8H8c-1.882,0-15.614,17.691-17.217,16.407S0,113.536,0,111V58A8,8,0,0,1,8,50Z" transform="translate(506.416 375.179) rotate(180)" opacity="0.147"/>
    <path id="Path_579330" data-name="Path 579330" d="M8,50H141a8,8,0,0,1,8,8v53a8,8,0,0,1-8,8H8c-1.882,0-16.4,16.707-18,15.423S0,113.536,0,111V58A8,8,0,0,1,8,50Z" transform="translate(505.416 374.179) rotate(180)" opacity="0.147"/>
    <path id="Path_579329" data-name="Path 579329" d="M8,50H141a8,8,0,0,1,8,8v53a8,8,0,0,1-8,8H8c-1.882,0-17.844,16.227-19.447,14.943S0,113.536,0,111V58A8,8,0,0,1,8,50Z" transform="translate(504.416 373.179) rotate(180)" fill="#40b4b9"/>
    <path id="Path_579336" data-name="Path 579336" d="M-40.44,0c.08,0,.128-.016.144-.128l.272-1.5c.016-.064-.016-.112-.112-.112h-4.7V-10.4c0-.064-.032-.112-.1-.112h-1.712c-.1,0-.128.064-.128.144V-.16c0,.112.032.16.16.16Zm4.992-8.048a3.85,3.85,0,0,0-3.888,4.112A3.781,3.781,0,0,0-35.48.16a3.808,3.808,0,0,0,3.84-4.144A3.754,3.754,0,0,0-35.448-8.048Zm-.1,1.616c1.36,0,1.936,1.168,1.936,2.5,0,1.648-.848,2.464-1.84,2.464-1.216,0-1.936-1.024-1.936-2.5C-37.384-5.488-36.616-6.432-35.544-6.432Zm8.9-1.616a3.85,3.85,0,0,0-3.888,4.112A3.781,3.781,0,0,0-26.68.16a3.808,3.808,0,0,0,3.84-4.144A3.754,3.754,0,0,0-26.648-8.048Zm-.1,1.616c1.36,0,1.936,1.168,1.936,2.5,0,1.648-.848,2.464-1.84,2.464-1.216,0-1.936-1.024-1.936-2.5C-28.584-5.488-27.816-6.432-26.744-6.432Zm10.432-1.456a.209.209,0,0,0-.192.1c-.368.416-2.048,2.352-2.9,3.3v-6.768c0-.1-.048-.128-.128-.128h-1.68c-.112,0-.144.048-.144.128V-.144c0,.112.032.144.144.144h1.68c.1,0,.128-.032.128-.144v-3.5c.784.944,2.352,2.864,2.944,3.536A.217.217,0,0,0-16.248,0h2.192c.1,0,.128-.08.08-.144-1.056-1.184-2.64-3.024-3.616-4.144,0-.032-.016-.048,0-.064.608-.64,2.688-2.832,3.168-3.392.064-.08.032-.144-.08-.144Zm6.784,1.616V-.128c0,.08.032.128.128.128h1.664c.128,0,.144-.048.144-.128V-6.272h1.408c.1-.016.128-.032.128-.112V-7.792c0-.064-.016-.1-.128-.1H-7.592v-.528c0-1.1.4-1.456,1.056-1.456a2.734,2.734,0,0,1,.5.048c.08.032.112-.016.112-.08V-11.28c0-.08,0-.128-.1-.16a2.13,2.13,0,0,0-.784-.1,2.4,2.4,0,0,0-2.368,1.408,4.334,4.334,0,0,0-.352,1.872v.368H-10.5c-.064,0-.1.016-.1.1v1.408c0,.08.016.112.1.112Zm7.952-1.776A3.85,3.85,0,0,0-5.464-3.936,3.781,3.781,0,0,0-1.608.16a3.808,3.808,0,0,0,3.84-4.144A3.754,3.754,0,0,0-1.576-8.048Zm-.1,1.616c1.36,0,1.936,1.168,1.936,2.5,0,1.648-.848,2.464-1.84,2.464-1.216,0-1.936-1.024-1.936-2.5C-3.512-5.488-2.744-6.432-1.672-6.432ZM3.752-7.888c-.08,0-.1.016-.1.1.064.528.08,1.456.08,2.144v5.52c0,.08.032.128.144.128H5.544c.1,0,.144-.032.144-.128V-5.28a3.109,3.109,0,0,1,2.448-.848c.112,0,.144-.032.144-.112v-1.7c0-.1-.032-.112-.128-.112A3.333,3.333,0,0,0,5.592-6.8a3.617,3.617,0,0,0-.16-.96.159.159,0,0,0-.176-.128ZM14.776,0c.1,0,.128-.032.128-.128V-5.776a2.251,2.251,0,0,1,1.52-.592c.864,0,1.344.512,1.344,1.568V-.144c0,.112.048.144.144.144h1.664c.1,0,.112-.048.112-.128V-4.784a7.321,7.321,0,0,0-.048-.944,2.266,2.266,0,0,1,1.568-.656c.976,0,1.344.72,1.344,1.632V-.144c0,.1.032.144.144.144h1.648c.08,0,.144-.032.144-.128v-4.8c0-2.416-1.376-3.12-2.7-3.12A3.943,3.943,0,0,0,19.16-6.992,2.241,2.241,0,0,0,17.1-8.048a3.415,3.415,0,0,0-2.336.9,2.712,2.712,0,0,0-.1-.64.152.152,0,0,0-.16-.1H13.032c-.1,0-.144.032-.128.112.032.3.064.96.064,1.584V-.144c0,.1.032.144.128.144ZM29.9-8.048a3.85,3.85,0,0,0-3.888,4.112A3.781,3.781,0,0,0,29.864.16,3.808,3.808,0,0,0,33.7-3.984,3.754,3.754,0,0,0,29.9-8.048Zm-.1,1.616c1.36,0,1.936,1.168,1.936,2.5,0,1.648-.848,2.464-1.84,2.464-1.216,0-1.936-1.024-1.936-2.5C27.96-5.488,28.728-6.432,29.8-6.432Zm5.424-1.456c-.08,0-.1.016-.1.1.064.528.08,1.456.08,2.144v5.52c0,.08.032.128.144.128h1.664c.1,0,.144-.032.144-.128V-5.28a3.109,3.109,0,0,1,2.448-.848c.112,0,.144-.032.144-.112v-1.7c0-.1-.032-.112-.128-.112A3.333,3.333,0,0,0,37.064-6.8a3.617,3.617,0,0,0-.16-.96.159.159,0,0,0-.176-.128ZM45.64-3.5a12.187,12.187,0,0,0,1.648-.064.137.137,0,0,0,.128-.112,4.842,4.842,0,0,0,.064-.992A3.181,3.181,0,0,0,44.2-8.048c-2.416,0-3.76,1.968-3.76,4.192A3.7,3.7,0,0,0,44.392.16a5.313,5.313,0,0,0,2.4-.464.169.169,0,0,0,.1-.176V-1.808c0-.08-.048-.1-.1-.064a5.042,5.042,0,0,1-1.984.384c-1.632,0-2.368-.9-2.416-2.016ZM42.392-4.88A1.748,1.748,0,0,1,44.12-6.512a1.48,1.48,0,0,1,1.536,1.488V-4.9a7.842,7.842,0,0,1-.88.016Z" transform="translate(429.5 283)" fill="#fff"/>
    <path id="Path_579335" data-name="Path 579335" d="M-47.576-5.808a2.27,2.27,0,0,1,1.536-.56c.928,0,1.392.608,1.392,1.68V-.144A.127.127,0,0,0-44.5,0h1.664c.08,0,.128-.032.128-.144V-4.88c0-2.56-1.456-3.168-2.672-3.168a3.508,3.508,0,0,0-2.192.736V-11.28c0-.08-.016-.112-.112-.112h-1.7c-.1,0-.128.048-.128.112V-.128c0,.08.032.128.128.128h1.7c.1,0,.112-.032.112-.112Zm11.6,2.3a12.187,12.187,0,0,0,1.648-.064A.137.137,0,0,0-34.2-3.68a4.842,4.842,0,0,0,.064-.992,3.181,3.181,0,0,0-3.28-3.376c-2.416,0-3.76,1.968-3.76,4.192A3.7,3.7,0,0,0-37.224.16a5.313,5.313,0,0,0,2.4-.464.169.169,0,0,0,.1-.176V-1.808c0-.08-.048-.1-.1-.064a5.042,5.042,0,0,1-1.984.384c-1.632,0-2.368-.9-2.416-2.016ZM-39.224-4.88A1.748,1.748,0,0,1-37.5-6.512,1.48,1.48,0,0,1-35.96-5.024V-4.9a7.842,7.842,0,0,1-.88.016ZM-32.7-1.9c0,1.68.832,2.064,1.856,2.064a2.333,2.333,0,0,0,.912-.128c.08-.048.1-.064.1-.176v-1.2c0-.08-.016-.112-.064-.1a2.04,2.04,0,0,1-.3.016c-.384,0-.56-.16-.56-.656v-9.184c0-.08-.048-.128-.144-.128h-1.648c-.1,0-.144.048-.144.128Zm7.44-6.144a9.767,9.767,0,0,0-3.232.64.075.075,0,0,0-.064.08c.032.224.048.752.048.944V3.2c0,.08.016.1.112.1.08,0,1.152-.1,1.712-.16.1-.016.112-.064.112-.128V.128a4.257,4.257,0,0,0,.48.032c2.416,0,4.784-1.44,4.784-4.368A3.671,3.671,0,0,0-25.256-8.048ZM-25.432-6.4a2.045,2.045,0,0,1,2.144,2.32,2.482,2.482,0,0,1-2.64,2.608,2.738,2.738,0,0,1-.64-.048V-6.24A3.611,3.611,0,0,1-25.432-6.4Zm12.7-1.648a3.85,3.85,0,0,0-3.888,4.112A3.781,3.781,0,0,0-12.76.16,3.808,3.808,0,0,0-8.92-3.984,3.754,3.754,0,0,0-12.728-8.048Zm-.1,1.616c1.36,0,1.936,1.168,1.936,2.5,0,1.648-.848,2.464-1.84,2.464-1.216,0-1.936-1.024-1.936-2.5C-14.664-5.488-13.9-6.432-12.824-6.432ZM-3.7,0a.161.161,0,0,0,.176-.112c.544-1.488,2.1-5.968,2.7-7.648.032-.1-.032-.128-.08-.128H-2.52c-.064,0-.112.016-.128.1-1.216,3.76-1.7,5.28-1.872,5.984h-.032c-.16-.7-.576-2.24-1.728-5.984a.125.125,0,0,0-.144-.1H-8.248c-.1,0-.112.048-.1.112.56,1.6,2.112,6.144,2.64,7.68a.169.169,0,0,0,.16.1Zm8.72-3.5a12.187,12.187,0,0,0,1.648-.064.137.137,0,0,0,.128-.112,4.842,4.842,0,0,0,.064-.992,3.181,3.181,0,0,0-3.28-3.376c-2.416,0-3.76,1.968-3.76,4.192A3.7,3.7,0,0,0,3.768.16,5.313,5.313,0,0,0,6.168-.3a.169.169,0,0,0,.1-.176V-1.808c0-.08-.048-.1-.1-.064a5.042,5.042,0,0,1-1.984.384c-1.632,0-2.368-.9-2.416-2.016ZM1.768-4.88A1.748,1.748,0,0,1,3.5-6.512,1.48,1.48,0,0,1,5.032-5.024V-4.9a7.842,7.842,0,0,1-.88.016ZM8.36-7.888c-.08,0-.1.016-.1.1.064.528.08,1.456.08,2.144v5.52c0,.08.032.128.144.128h1.664c.1,0,.144-.032.144-.128V-5.28a3.109,3.109,0,0,1,2.448-.848c.112,0,.144-.032.144-.112v-1.7c0-.1-.032-.112-.128-.112A3.333,3.333,0,0,0,10.2-6.8a3.617,3.617,0,0,0-.16-.96.159.159,0,0,0-.176-.128Zm11.152,2.08a2.27,2.27,0,0,1,1.536-.56c.928,0,1.392.608,1.392,1.68V-.144A.127.127,0,0,0,22.584,0h1.664c.08,0,.128-.032.128-.144V-4.88c0-2.56-1.456-3.168-2.672-3.168a3.508,3.508,0,0,0-2.192.736V-11.28c0-.08-.016-.112-.112-.112H17.7c-.1,0-.128.048-.128.112V-.128c0,.08.032.128.128.128h1.7c.1,0,.112-.032.112-.112Zm11.6,2.3a12.187,12.187,0,0,0,1.648-.064.137.137,0,0,0,.128-.112,4.842,4.842,0,0,0,.064-.992,3.181,3.181,0,0,0-3.28-3.376c-2.416,0-3.76,1.968-3.76,4.192A3.7,3.7,0,0,0,29.864.16a5.313,5.313,0,0,0,2.4-.464.169.169,0,0,0,.1-.176V-1.808c0-.08-.048-.1-.1-.064a5.042,5.042,0,0,1-1.984.384c-1.632,0-2.368-.9-2.416-2.016ZM27.864-4.88a1.748,1.748,0,0,1,1.728-1.632,1.48,1.48,0,0,1,1.536,1.488V-4.9a7.842,7.842,0,0,1-.88.016Zm6.592-3.008c-.08,0-.1.016-.1.1.064.528.08,1.456.08,2.144v5.52c0,.08.032.128.144.128h1.664c.1,0,.144-.032.144-.128V-5.28a3.109,3.109,0,0,1,2.448-.848c.112,0,.144-.032.144-.112v-1.7c0-.1-.032-.112-.128-.112A3.333,3.333,0,0,0,36.3-6.8a3.617,3.617,0,0,0-.16-.96.159.159,0,0,0-.176-.128ZM44.872-3.5a12.187,12.187,0,0,0,1.648-.064.137.137,0,0,0,.128-.112,4.842,4.842,0,0,0,.064-.992,3.181,3.181,0,0,0-3.28-3.376c-2.416,0-3.76,1.968-3.76,4.192A3.7,3.7,0,0,0,43.624.16a5.313,5.313,0,0,0,2.4-.464.169.169,0,0,0,.1-.176V-1.808c0-.08-.048-.1-.1-.064a5.042,5.042,0,0,1-1.984.384c-1.632,0-2.368-.9-2.416-2.016ZM41.624-4.88a1.748,1.748,0,0,1,1.728-1.632,1.48,1.48,0,0,1,1.536,1.488V-4.9a7.842,7.842,0,0,1-.88.016ZM48.856.16a1.113,1.113,0,0,0,1.184-1.2,1.13,1.13,0,0,0-1.184-1.168A1.117,1.117,0,0,0,47.688-1.04,1.109,1.109,0,0,0,48.856.16Z" transform="translate(429.5 304.496)" fill="#fff"/>
  </g>
</svg>
