<svg xmlns="http://www.w3.org/2000/svg" width="160.794" height="88.016" viewBox="0 0 160.794 88.016">
  <g id="Group_141579" data-name="Group 141579" transform="translate(-355.416 -239.163)">
    <path id="Path_579333" data-name="Path 579333" d="M15.794,87.366h133a8,8,0,0,0,8-8v-53a8,8,0,0,0-8-8h-133C13.912,18.366,1.791-1.223.188.06S7.794,23.83,7.794,26.366v53A8,8,0,0,0,15.794,87.366Z" transform="translate(355.416 239.813)" opacity="0.147"/>
    <path id="Path_579332" data-name="Path 579332" d="M16.521,86.352h133a8,8,0,0,0,8-8v-53a8,8,0,0,0-8-8h-133C14.639,17.352,1.778-1.22.175.064S8.521,22.816,8.521,25.352v53A8,8,0,0,0,16.521,86.352Z" transform="translate(355.689 239.827)" opacity="0.147"/>
    <path id="Path_579331" data-name="Path 579331" d="M17.38,85.474h133a8,8,0,0,0,8-8v-53a8,8,0,0,0-8-8h-133C15.5,16.474,1.765-1.217.162.067S9.38,21.938,9.38,24.474v53A8,8,0,0,0,17.38,85.474Z" transform="translate(355.831 239.705)" opacity="0.147"/>
    <path id="Path_579330" data-name="Path 579330" d="M18.157,84.493h133a8,8,0,0,0,8-8v-53a8,8,0,0,0-8-8h-133c-1.882,0-16.4-16.707-18-15.423s10,20.887,10,23.423v53A8,8,0,0,0,18.157,84.493Z" transform="translate(356.054 239.685)" opacity="0.147"/>
    <path id="Path_579329" data-name="Path 579329" d="M19.584,84.016h133a8,8,0,0,0,8-8v-53a8,8,0,0,0-8-8h-133C17.7,15.016,1.74-1.211.137.072S11.584,20.48,11.584,23.016v53A8,8,0,0,0,19.584,84.016Z" transform="translate(355.627 239.163)" fill="#40b4b9"/>
    <path id="Path_579337" data-name="Path 579337" d="M7.86-1.65c0-.09-.045-.105-.1-.075A5.33,5.33,0,0,1,5.91-1.47,3.28,3.28,0,0,1,2.415-4.95,3.233,3.233,0,0,1,5.88-8.4a4.8,4.8,0,0,1,1.95.33c.06.03.12.03.12-.09V-9.585a.159.159,0,0,0-.09-.165,5.135,5.135,0,0,0-1.95-.255C2.64-10.005.54-7.92.54-4.9.54-1.485,2.91.15,5.685.15a6.468,6.468,0,0,0,2.07-.27.19.19,0,0,0,.1-.195Zm1.38-.135C9.24-.21,10.02.15,10.98.15a2.187,2.187,0,0,0,.855-.12c.075-.045.09-.06.09-.165V-1.26c0-.075-.015-.105-.06-.09a1.913,1.913,0,0,1-.285.015c-.36,0-.525-.15-.525-.615v-8.61c0-.075-.045-.12-.135-.12H9.375c-.09,0-.135.045-.135.12Zm3.93,1.65c0,.09.045.135.15.135h1.545C14.97,0,15-.03,15-.12V-7.29c0-.09-.03-.105-.12-.105H13.29c-.075,0-.12.03-.12.105ZM14.085-8.4A.976.976,0,0,0,15.12-9.435.964.964,0,0,0,14.1-10.47a.992.992,0,0,0-1.035,1.035A.972.972,0,0,0,14.085-8.4Zm7.95,6.855c0-.06-.03-.105-.1-.075a4.319,4.319,0,0,1-1.305.15,2.152,2.152,0,0,1-2.34-2.265,2.131,2.131,0,0,1,2.325-2.25,3.526,3.526,0,0,1,1.29.195c.06.015.12.015.12-.09l.015-1.335c0-.09-.015-.135-.075-.165a4.308,4.308,0,0,0-1.41-.165,3.837,3.837,0,0,0-4.125,3.87A3.649,3.649,0,0,0,20.3.15,4.569,4.569,0,0,0,21.96-.09c.06-.015.075-.045.075-.12Zm6.105-5.85a.2.2,0,0,0-.18.09c-.345.39-1.92,2.2-2.715,3.09V-10.56c0-.09-.045-.12-.12-.12H23.55c-.105,0-.135.045-.135.12V-.135c0,.1.03.135.135.135h1.575c.09,0,.12-.03.12-.135V-3.42c.735.885,2.2,2.685,2.76,3.315A.2.2,0,0,0,28.2,0h2.055c.09,0,.12-.075.075-.135-.99-1.11-2.475-2.835-3.39-3.885,0-.03-.015-.045,0-.06.57-.6,2.52-2.655,2.97-3.18.06-.075.03-.135-.075-.135Zm9.39-.15A3.609,3.609,0,0,0,33.885-3.69,3.545,3.545,0,0,0,37.5.15a3.57,3.57,0,0,0,3.6-3.885A3.519,3.519,0,0,0,37.53-7.545ZM37.44-6.03c1.275,0,1.815,1.1,1.815,2.34,0,1.545-.795,2.31-1.725,2.31-1.14,0-1.815-.96-1.815-2.34C35.715-5.145,36.435-6.03,37.44-6.03ZM42.51-.12c0,.075.03.12.12.12H44.2a.11.11,0,0,0,.12-.12V-5.355A1.921,1.921,0,0,1,45.78-5.97c.87,0,1.29.57,1.29,1.56V-.135A.119.119,0,0,0,47.2,0h1.56c.075,0,.12-.03.12-.135v-4.44c0-2.4-1.38-2.97-2.505-2.97A3.307,3.307,0,0,0,44.2-6.72a3.266,3.266,0,0,0-.1-.57c-.03-.075-.075-.105-.18-.105H42.555c-.09,0-.105.03-.105.105.03.3.06,1.11.06,1.62ZM57.7-1.32c0-.09-.045-.105-.09-.09a2.542,2.542,0,0,1-.57.06c-.645,0-.855-.315-.855-.975V-5.88h1.47c.075,0,.1-.03.1-.105V-7.29c0-.075-.03-.105-.1-.105H56.2c0-.735.03-1.62.075-2.115,0-.075-.03-.09-.1-.075l-1.515.21a.144.144,0,0,0-.12.135,15.832,15.832,0,0,0-.15,1.845h-.945c-.09,0-.12.03-.12.12v1.26c0,.09.03.12.1.135h.945v3.945C54.375-.45,55.11.15,56.34.15a3.448,3.448,0,0,0,1.275-.21c.075-.03.09-.09.09-.18ZM60.84-5.445a2.128,2.128,0,0,1,1.44-.525c.87,0,1.305.57,1.305,1.575v4.26A.119.119,0,0,0,63.72,0h1.56c.075,0,.12-.03.12-.135v-4.44c0-2.4-1.365-2.97-2.505-2.97a3.289,3.289,0,0,0-2.055.69v-3.72c0-.075-.015-.105-.1-.105h-1.59c-.09,0-.12.045-.12.105V-.12c0,.075.03.12.12.12h1.59c.09,0,.1-.03.1-.105Zm10.875,2.16a11.425,11.425,0,0,0,1.545-.06.129.129,0,0,0,.12-.105,4.539,4.539,0,0,0,.06-.93,2.982,2.982,0,0,0-3.075-3.165c-2.265,0-3.525,1.845-3.525,3.93A3.465,3.465,0,0,0,70.545.15a4.981,4.981,0,0,0,2.25-.435.159.159,0,0,0,.09-.165V-1.695c0-.075-.045-.09-.09-.06a4.727,4.727,0,0,1-1.86.36c-1.53,0-2.22-.84-2.265-1.89ZM68.67-4.575a1.639,1.639,0,0,1,1.62-1.53A1.388,1.388,0,0,1,71.73-4.71v.12a7.352,7.352,0,0,1-.825.015Zm9.6,2.79C78.27-.21,79.05.15,80.01.15a2.187,2.187,0,0,0,.855-.12c.075-.045.09-.06.09-.165V-1.26c0-.075-.015-.105-.06-.09a1.913,1.913,0,0,1-.285.015c-.36,0-.525-.15-.525-.615v-8.61c0-.075-.045-.12-.135-.12H78.4c-.09,0-.135.045-.135.12Zm7.155-5.76A3.609,3.609,0,0,0,81.78-3.69,3.545,3.545,0,0,0,85.4.15,3.57,3.57,0,0,0,89-3.735,3.519,3.519,0,0,0,85.425-7.545Zm-.09,1.515c1.275,0,1.815,1.1,1.815,2.34,0,1.545-.795,2.31-1.725,2.31-1.14,0-1.815-.96-1.815-2.34C83.61-5.145,84.33-6.03,85.335-6.03ZM93.72-.045C94.635,0,95.385.18,95.385.84c0,.57-.63,1.155-2.055,1.155-1.245,0-1.965-.585-1.965-1.11a1.646,1.646,0,0,1,.72-1ZM93-6.24a1.127,1.127,0,0,1,1.2,1.26A1.089,1.089,0,0,1,93-3.81a1.122,1.122,0,0,1-1.215-1.2A1.131,1.131,0,0,1,93-6.24Zm-.42,4.605a.844.844,0,0,1-.195-.465.927.927,0,0,1,.045-.45,4.039,4.039,0,0,0,.6.045c1.62,0,2.895-.81,2.895-2.415a1.943,1.943,0,0,0-.33-1.14,10.632,10.632,0,0,0,1.155.075c.075,0,.09-.03.09-.09V-7.3c0-.06-.015-.09-.09-.09H94.665a1.672,1.672,0,0,1-.345-.045A7.556,7.556,0,0,0,93-7.545c-1.89,0-2.985,1.125-2.985,2.565A2.2,2.2,0,0,0,91.05-3.03a1.874,1.874,0,0,0-.27.975A1.857,1.857,0,0,0,91.1-.93C90.105-.075,89.7.54,89.7,1.02c0,1.095,1.1,2.31,3.51,2.31,2.34,0,3.84-1.23,3.84-2.76,0-1.23-.885-2.04-2.94-2.145Zm8.49-5.91A3.609,3.609,0,0,0,97.425-3.69,3.545,3.545,0,0,0,101.04.15a3.57,3.57,0,0,0,3.6-3.885A3.519,3.519,0,0,0,101.07-7.545Zm-.09,1.515c1.275,0,1.815,1.1,1.815,2.34,0,1.545-.795,2.31-1.725,2.31-1.14,0-1.815-.96-1.815-2.34C99.255-5.145,99.975-6.03,100.98-6.03Zm12,4.71c0-.09-.045-.105-.09-.09a2.542,2.542,0,0,1-.57.06c-.645,0-.855-.315-.855-.975V-5.88h1.47c.075,0,.105-.03.105-.105V-7.29c0-.075-.03-.105-.105-.105H111.48c0-.735.03-1.62.075-2.115,0-.075-.03-.09-.1-.075l-1.515.21a.144.144,0,0,0-.12.135,15.831,15.831,0,0,0-.15,1.845h-.945c-.09,0-.12.03-.12.12v1.26c0,.09.03.12.105.135h.945v3.945c0,1.485.735,2.085,1.965,2.085a3.448,3.448,0,0,0,1.275-.21c.075-.03.09-.09.09-.18Zm4.41-6.225a3.609,3.609,0,0,0-3.645,3.855A3.545,3.545,0,0,0,117.36.15a3.57,3.57,0,0,0,3.6-3.885A3.519,3.519,0,0,0,117.39-7.545ZM117.3-6.03c1.275,0,1.815,1.1,1.815,2.34,0,1.545-.795,2.31-1.725,2.31-1.14,0-1.815-.96-1.815-2.34C115.575-5.145,116.295-6.03,117.3-6.03Z" transform="translate(378.5 283)" fill="#fff"/>
    <path id="Path_579338" data-name="Path 579338" d="M5.408-6.032c.1.032.144-.016.144-.1V-7.536a.2.2,0,0,0-.1-.192,4.932,4.932,0,0,0-2.016-.32C1.44-8.048.448-6.912.448-5.7c0,1.152.624,1.872,2.368,2.512.992.4,1.3.656,1.3,1.056,0,.416-.4.7-1.232.7a4.355,4.355,0,0,1-2.288-.64.083.083,0,0,0-.128.08v1.52c0,.1.032.128.112.176A4.922,4.922,0,0,0,2.832.16C4.8.16,5.984-.784,5.984-2.288c0-1.136-.624-1.856-2.448-2.528-1.024-.4-1.264-.64-1.264-.992,0-.336.288-.688,1.136-.688A4.551,4.551,0,0,1,5.408-6.032Zm3.872.224a2.27,2.27,0,0,1,1.536-.56c.928,0,1.392.608,1.392,1.68V-.144A.127.127,0,0,0,12.352,0h1.664c.08,0,.128-.032.128-.144V-4.88c0-2.56-1.456-3.168-2.672-3.168a3.508,3.508,0,0,0-2.192.736V-11.28c0-.08-.016-.112-.112-.112h-1.7c-.1,0-.128.048-.128.112V-.128c0,.08.032.128.128.128h1.7c.1,0,.112-.032.112-.112Zm10.288-2.24A3.85,3.85,0,0,0,15.68-3.936,3.781,3.781,0,0,0,19.536.16a3.808,3.808,0,0,0,3.84-4.144A3.754,3.754,0,0,0,19.568-8.048Zm-.1,1.616c1.36,0,1.936,1.168,1.936,2.5,0,1.648-.848,2.464-1.84,2.464-1.216,0-1.936-1.024-1.936-2.5C17.632-5.488,18.4-6.432,19.472-6.432ZM33.216,0c.112,0,.128-.032.176-.128L35.68-7.776c.032-.08-.032-.112-.1-.112H33.968a.129.129,0,0,0-.144.1c-.928,3.408-1.168,5.008-1.36,5.968h-.032c-.128-.64-.352-2.064-1.344-5.968a.112.112,0,0,0-.128-.1H29.12c-.112,0-.128.032-.144.128C27.92-3.888,27.648-2.432,27.52-1.872h-.032c-.112-.64-.352-2.16-1.312-5.92-.016-.08-.048-.1-.128-.1h-1.76c-.1,0-.144.048-.112.128l2.08,7.632c.032.1.048.128.208.128h1.744a.159.159,0,0,0,.176-.128c.752-2.656,1.152-4.192,1.52-5.792h.016c.16.784.432,2.208,1.36,5.776.032.1.064.144.176.144ZM44.56-1.552a2.925,2.925,0,0,1-1.136.192c-1.152,0-1.568-.512-1.568-1.1,0-.688.56-1.1,1.824-1.1a6.582,6.582,0,0,1,.88.048ZM46.432-4.88a2.9,2.9,0,0,0-3.184-3.168,5.944,5.944,0,0,0-2.432.48.152.152,0,0,0-.1.16v1.392a.094.094,0,0,0,.128.1,4.759,4.759,0,0,1,2.1-.448c1.408,0,1.616.832,1.616,1.2v.192c-.144-.016-.512-.032-.992-.032-2.08,0-3.6.848-3.6,2.544C39.968-.656,41.36.16,43.1.16a7.782,7.782,0,0,0,3.328-.72c.032-.016.032-.032.032-.064-.032-.336-.032-.656-.032-1.008ZM48.448-1.9C48.448-.224,49.28.16,50.3.16a2.333,2.333,0,0,0,.912-.128c.08-.048.1-.064.1-.176v-1.2c0-.08-.016-.112-.064-.1a2.04,2.04,0,0,1-.3.016c-.384,0-.56-.16-.56-.656v-9.184c0-.08-.048-.128-.144-.128H48.592c-.1,0-.144.048-.144.128Zm4.24,0c0,1.68.832,2.064,1.856,2.064a2.333,2.333,0,0,0,.912-.128c.08-.048.1-.064.1-.176v-1.2c0-.08-.016-.112-.064-.1a2.04,2.04,0,0,1-.3.016c-.384,0-.56-.16-.56-.656v-9.184c0-.08-.048-.128-.144-.128H52.832c-.1,0-.144.048-.144.128ZM65.3-3.5a12.187,12.187,0,0,0,1.648-.064.137.137,0,0,0,.128-.112,4.842,4.842,0,0,0,.064-.992,3.181,3.181,0,0,0-3.28-3.376c-2.416,0-3.76,1.968-3.76,4.192A3.7,3.7,0,0,0,64.048.16a5.313,5.313,0,0,0,2.4-.464.169.169,0,0,0,.1-.176V-1.808c0-.08-.048-.1-.1-.064a5.042,5.042,0,0,1-1.984.384c-1.632,0-2.368-.9-2.416-2.016ZM62.048-4.88a1.748,1.748,0,0,1,1.728-1.632,1.48,1.48,0,0,1,1.536,1.488V-4.9a7.842,7.842,0,0,1-.88.016ZM68.576-1.9c0,1.68.832,2.064,1.856,2.064a2.333,2.333,0,0,0,.912-.128c.08-.048.1-.064.1-.176v-1.2c0-.08-.016-.112-.064-.1a2.04,2.04,0,0,1-.3.016c-.384,0-.56-.16-.56-.656v-9.184c0-.08-.048-.128-.144-.128H68.72c-.1,0-.144.048-.144.128ZM77.52-3.5a12.187,12.187,0,0,0,1.648-.064A.137.137,0,0,0,79.3-3.68a4.842,4.842,0,0,0,.064-.992,3.181,3.181,0,0,0-3.28-3.376c-2.416,0-3.76,1.968-3.76,4.192A3.7,3.7,0,0,0,76.272.16a5.313,5.313,0,0,0,2.4-.464.169.169,0,0,0,.1-.176V-1.808c0-.08-.048-.1-.1-.064a5.042,5.042,0,0,1-1.984.384c-1.632,0-2.368-.9-2.416-2.016ZM74.272-4.88A1.748,1.748,0,0,1,76-6.512a1.48,1.48,0,0,1,1.536,1.488V-4.9a7.842,7.842,0,0,1-.88.016ZM82.656,0c.1,0,.128-.032.128-.128V-5.776a2.251,2.251,0,0,1,1.52-.592c.864,0,1.344.512,1.344,1.568V-.144c0,.112.048.144.144.144h1.664c.1,0,.112-.048.112-.128V-4.784a7.321,7.321,0,0,0-.048-.944,2.266,2.266,0,0,1,1.568-.656c.976,0,1.344.72,1.344,1.632V-.144c0,.1.032.144.144.144h1.648c.08,0,.144-.032.144-.128v-4.8c0-2.416-1.376-3.12-2.7-3.12A3.943,3.943,0,0,0,87.04-6.992a2.241,2.241,0,0,0-2.064-1.056,3.415,3.415,0,0,0-2.336.9,2.713,2.713,0,0,0-.1-.64.152.152,0,0,0-.16-.1H80.912c-.1,0-.144.032-.128.112.032.3.064.96.064,1.584V-.144c0,.1.032.144.128.144ZM99.088-3.5a12.187,12.187,0,0,0,1.648-.064.137.137,0,0,0,.128-.112,4.842,4.842,0,0,0,.064-.992,3.181,3.181,0,0,0-3.28-3.376c-2.416,0-3.76,1.968-3.76,4.192A3.7,3.7,0,0,0,97.84.16a5.313,5.313,0,0,0,2.4-.464.169.169,0,0,0,.1-.176V-1.808c0-.08-.048-.1-.1-.064a5.042,5.042,0,0,1-1.984.384c-1.632,0-2.368-.9-2.416-2.016ZM95.84-4.88a1.748,1.748,0,0,1,1.728-1.632A1.48,1.48,0,0,1,99.1-5.024V-4.9a7.842,7.842,0,0,1-.88.016Zm6.576,4.752c0,.08.032.128.128.128h1.68a.118.118,0,0,0,.128-.128V-5.712a2.049,2.049,0,0,1,1.552-.656c.928,0,1.376.608,1.376,1.664v4.56a.127.127,0,0,0,.144.144h1.664c.08,0,.128-.032.128-.144V-4.88c0-2.56-1.472-3.168-2.672-3.168a3.527,3.527,0,0,0-2.32.88,3.484,3.484,0,0,0-.112-.608c-.032-.08-.08-.112-.192-.112h-1.456c-.1,0-.112.032-.112.112.032.32.064,1.184.064,1.728Zm12.544-1.28c0-.1-.048-.112-.1-.1a2.712,2.712,0,0,1-.608.064c-.688,0-.912-.336-.912-1.04V-6.272h1.568c.08,0,.112-.032.112-.112V-7.776c0-.08-.032-.112-.112-.112H113.36c0-.784.032-1.728.08-2.256,0-.08-.032-.1-.112-.08L111.712-10a.154.154,0,0,0-.128.144,16.888,16.888,0,0,0-.16,1.968h-1.008c-.1,0-.128.032-.128.128v1.344c0,.1.032.128.112.144h1.008v4.208c0,1.584.784,2.224,2.1,2.224a3.678,3.678,0,0,0,1.36-.224c.08-.032.1-.1.1-.192Zm6.08-4.624c.1.032.144-.016.144-.1V-7.536a.2.2,0,0,0-.1-.192,4.932,4.932,0,0,0-2.016-.32c-2,0-2.992,1.136-2.992,2.352,0,1.152.624,1.872,2.368,2.512.992.4,1.3.656,1.3,1.056,0,.416-.4.7-1.232.7a4.355,4.355,0,0,1-2.288-.64.083.083,0,0,0-.128.08v1.52c0,.1.032.128.112.176a4.922,4.922,0,0,0,2.256.448c1.968,0,3.152-.944,3.152-2.448,0-1.136-.624-1.856-2.448-2.528-1.024-.4-1.264-.64-1.264-.992,0-.336.288-.688,1.136-.688A4.551,4.551,0,0,1,121.04-6.032ZM124.064.16a1.113,1.113,0,0,0,1.184-1.2,1.13,1.13,0,0,0-1.184-1.168A1.117,1.117,0,0,0,122.9-1.04,1.109,1.109,0,0,0,124.064.16Z" transform="translate(378.5 304.496)" fill="#fff"/>
  </g>
</svg>
