<?xml version="1.0" encoding="utf-8"?><svg id="BubbleDoubleClick" image-rendering="auto" baseProfile="basic" version="1.1" x="0px" y="0px" width="220" height="140" xmlns="http://www.w3.org/2000/svg" xmlns:xlink="http://www.w3.org/1999/xlink"><g id="Scene-1" overflow="visible"><g id="bubble1" transform="translate(3.75 138.5)"><path fill="#000" fill-opacity=".2" stroke="none" d="M16.85 -128.5Q14.5 -126.15 14.5 -122.85L14.5 -19.85Q14.5 -18.7 6.95 -9.6 -.6 -.55 .05 -.05 .65 .4 11.2 -5.7 21.75 -11.85 22.5 -11.85L195.5 -11.85Q198.85 -11.85 201.15 -14.2 203.5 -16.55 203.5 -19.85L203.5 -122.85Q203.5 -126.15 201.15 -128.5 198.85 -130.85 195.5 -130.85L22.5 -130.85Q19.2 -130.85 16.85 -128.5Z"/><path fill="#000" fill-opacity=".2" stroke="none" d="M15.85 -129.5Q13.5 -127.15 13.5 -123.85L13.5 -20.85Q13.5 -19.7 6.4 -10.15 -.75 -.65 0 -.05 .7 .5 10.75 -6.15 20.75 -12.85 21.5 -12.85L194.5 -12.85Q197.85 -12.85 200.15 -15.2 202.5 -17.55 202.5 -20.85L202.5 -123.85Q202.5 -127.15 200.15 -129.5 197.85 -131.85 194.5 -131.85L21.5 -131.85Q18.2 -131.85 15.85 -129.5Z"/><path fill="#000" fill-opacity=".2" stroke="none" d="M14.8 -130.5Q12.45 -128.15 12.45 -124.85L12.45 -21.85Q12.45 -20.7 5.7 -10.55 -.7 -.85 .15 -.15 1.05 .5 10.2 -6.55 19.7 -13.85 20.45 -13.85L193.45 -13.85Q196.8 -13.85 199.1 -16.2 201.45 -18.55 201.45 -21.85L201.45 -124.85Q201.45 -128.15 199.1 -130.5 196.8 -132.85 193.45 -132.85L20.45 -132.85Q17.15 -132.85 14.8 -130.5Z"/><path fill="#40B4B9" stroke="none" d="M13.9 -131.85Q11.55 -129.5 11.55 -126.2L11.55 -23.2Q11.55 -22.1 5.25 -11.25 -.75 -.95 .1 -.25 1 .4 9.75 -7.25 18.75 -15.2 19.55 -15.2L192.55 -15.2Q195.9 -15.2 198.2 -17.55 200.55 -19.9 200.55 -23.2L200.55 -126.2Q200.55 -129.5 198.2 -131.85 195.9 -134.2 192.55 -134.2L19.55 -134.2Q16.25 -134.2 13.9 -131.85Z"/><path fill="#FFF" stroke="none" d="M177.95 -96.15Q177.95 -97.5 177.2 -98.45 176.3 -99.55 174.65 -99.55 172.95 -99.55 171.9 -98.3 170.9 -97.1 170.9 -95.35 170.9 -93.7 171.8 -92.6 172.85 -91.35 174.85 -91.35 176.3 -91.35 177.25 -91.8 177.35 -91.85 177.35 -92L177.35 -93.3Q177.35 -93.45 177.25 -93.35 176.35 -93 175.3 -93 174.1 -93 173.5 -93.6 172.9 -94.1 172.85 -95L176.1 -95Q177.45 -95 177.75 -95.05 177.85 -95.1 177.9 -95.2 177.95 -95.4 177.95 -96.15M172.85 -96.4Q173.15 -98 174.6 -98 175.4 -98 175.8 -97.45 176.15 -97 176.15 -96.5L176.15 -96.4 172.85 -96.4M192 -99.25Q192 -99.4 191.9 -99.4L190.35 -99.4 190.4 -101.65Q190.4 -101.75 190.3 -101.75L188.7 -101.5Q188.6 -101.5 188.55 -101.35 188.45 -100.75 188.4 -99.4L187.4 -99.4Q187.25 -99.4 187.25 -99.25L187.25 -97.9Q187.25 -97.8 187.4 -97.75L188.4 -97.75 188.4 -93.55Q188.4 -91.35 190.5 -91.35 191.25 -91.35 191.85 -91.55 191.95 -91.6 191.95 -91.75L191.95 -92.9Q191.95 -93.05 191.85 -93L191.25 -92.95Q190.3 -92.95 190.3 -94L190.3 -97.75 191.9 -97.75Q192 -97.75 192 -97.9L192 -99.25M181.1 -99.25Q181.05 -99.4 180.9 -99.4L179.45 -99.4Q179.35 -99.4 179.35 -99.25L179.4 -91.6Q179.4 -91.5 179.55 -91.5L181.2 -91.5Q181.35 -91.5 181.35 -91.6L181.35 -97.2Q181.95 -97.85 182.9 -97.85 184.3 -97.85 184.3 -96.2L184.3 -91.65Q184.3 -91.5 184.4 -91.5L186.1 -91.5Q186.2 -91.5 186.2 -91.65L186.2 -96.4Q186.2 -98.1 185.3 -98.9 184.65 -99.55 183.55 -99.55 182.25 -99.55 181.2 -98.65L181.1 -99.25M104.55 -96.15Q104.55 -97.5 103.8 -98.45 102.9 -99.55 101.25 -99.55 99.55 -99.55 98.5 -98.3 97.5 -97.1 97.5 -95.35 97.5 -93.7 98.4 -92.6 99.45 -91.35 101.45 -91.35 102.9 -91.35 103.85 -91.8 103.95 -91.85 103.95 -92L103.95 -93.3Q103.95 -93.45 103.85 -93.35 102.95 -93 101.9 -93 100.7 -93 100.1 -93.6 99.5 -94.1 99.45 -95L102.7 -95Q104.05 -95 104.35 -95.05 104.45 -95.1 104.5 -95.2 104.55 -95.4 104.55 -96.15M102.75 -96.5L102.75 -96.4 99.45 -96.4Q99.75 -98 101.2 -98 102 -98 102.4 -97.45 102.75 -97 102.75 -96.5M122.1 -95Q123.45 -95 123.75 -95.05 123.85 -95.1 123.9 -95.2 123.95 -95.4 123.95 -96.15 123.95 -97.5 123.2 -98.45 122.3 -99.55 120.65 -99.55 118.95 -99.55 117.9 -98.3 116.9 -97.1 116.9 -95.35 116.9 -93.7 117.8 -92.6 118.85 -91.35 120.85 -91.35 122.3 -91.35 123.25 -91.8 123.35 -91.85 123.35 -92L123.35 -93.3Q123.35 -93.45 123.25 -93.35 122.35 -93 121.3 -93 120.1 -93 119.5 -93.6 118.9 -94.1 118.85 -95L122.1 -95M121.8 -97.45Q122.15 -97 122.15 -96.5L122.15 -96.4 118.85 -96.4Q119.15 -98 120.6 -98 121.4 -98 121.8 -97.45M143.65 -93.3Q143.65 -93.45 143.55 -93.35 142.65 -93 141.6 -93 140.4 -93 139.8 -93.6 139.2 -94.1 139.15 -95L142.4 -95Q143.75 -95 144.05 -95.05 144.15 -95.1 144.2 -95.2 144.25 -95.4 144.25 -96.15 144.25 -97.5 143.5 -98.45 142.6 -99.55 140.95 -99.55 139.25 -99.55 138.2 -98.3 137.2 -97.1 137.2 -95.35 137.2 -93.7 138.1 -92.6 139.15 -91.35 141.15 -91.35 142.6 -91.35 143.55 -91.8 143.65 -91.85 143.65 -92L143.65 -93.3M142.1 -97.45Q142.45 -97 142.45 -96.5L142.45 -96.4 139.15 -96.4Q139.45 -98 140.9 -98 141.7 -98 142.1 -97.45M156.45 -96.15Q156.45 -97.5 155.7 -98.45 154.8 -99.55 153.15 -99.55 151.45 -99.55 150.4 -98.3 149.4 -97.1 149.4 -95.35 149.4 -93.7 150.3 -92.6 151.35 -91.35 153.35 -91.35 154.8 -91.35 155.75 -91.8 155.85 -91.85 155.85 -92L155.85 -93.3Q155.85 -93.45 155.75 -93.35 154.85 -93 153.8 -93 152.6 -93 152 -93.6 151.4 -94.1 151.35 -95L154.6 -95Q155.95 -95 156.25 -95.05 156.35 -95.1 156.4 -95.2 156.45 -95.4 156.45 -96.15M154.65 -96.5L154.65 -96.4 151.35 -96.4Q151.65 -98 153.1 -98 153.9 -98 154.3 -97.45 154.65 -97 154.65 -96.5M80.4 -99.55Q79 -99.55 77.95 -99.05 77.85 -99 77.85 -98.9L77.85 -97.5Q77.85 -97.35 78 -97.4 78.9 -97.85 80.1 -97.85 81 -97.85 81.4 -97.4 81.7 -97.1 81.7 -96.65L81.7 -96.5 80.7 -96.5Q79.1 -96.5 78.15 -95.85 77.1 -95.2 77.1 -93.95 77.1 -92.65 78.05 -92 78.85 -91.35 80.25 -91.35 81.9 -91.35 83.6 -92.05L83.6 -96.4Q83.6 -97.8 82.8 -98.65 82 -99.55 80.4 -99.55M80.55 -92.85Q79 -92.85 79 -93.95 79 -95.05 80.85 -95.05L81.7 -95 81.7 -93.05Q81.25 -92.85 80.55 -92.85M61.75 -100.45Q63.1 -100.45 63.85 -100.1 64 -100.05 64 -100.2L64 -101.75Q64 -101.85 63.9 -101.9 63.25 -102.15 61.8 -102.15 59.2 -102.15 57.65 -100.65 56.1 -99.15 56.1 -96.75 56.1 -94.1 57.7 -92.65 59.2 -91.35 61.55 -91.35 63 -91.35 63.75 -91.6 63.9 -91.65 63.9 -91.85L63.9 -93.25Q63.9 -93.4 63.75 -93.35 63 -93.05 61.8 -93.05 60.35 -93.05 59.3 -93.9 58.1 -94.9 58.1 -96.8 58.1 -98.45 59.1 -99.45 60.1 -100.45 61.75 -100.45M64.75 -102Q64.65 -102 64.65 -101.9L64.4 -100.4Q64.4 -100.25 64.5 -100.25L67.75 -100.25 67.75 -91.65Q67.75 -91.5 67.9 -91.5L69.55 -91.5Q69.7 -91.5 69.7 -91.65L69.7 -100.25 72.9 -100.25Q73.05 -100.25 73.05 -100.4L72.9 -101.85Q72.85 -102 72.7 -102L64.75 -102M65.55 -118.8Q63.8 -118.8 62.7 -117.6 61.65 -116.45 61.65 -114.7 61.65 -113 62.6 -111.85 63.65 -110.6 65.5 -110.6 67.2 -110.6 68.3 -111.75 69.35 -112.9 69.35 -114.75 69.35 -116.45 68.4 -117.6 67.35 -118.8 65.55 -118.8M64.15 -116.5Q64.65 -117.2 65.45 -117.2 66.4 -117.2 66.95 -116.45 67.4 -115.75 67.4 -114.7 67.4 -113.5 66.85 -112.85 66.35 -112.2 65.55 -112.2 64.65 -112.2 64.15 -112.9 63.6 -113.6 63.6 -114.7 63.6 -115.85 64.15 -116.5M77.55 -118.5Q77.55 -118.65 77.45 -118.65L75.75 -118.65Q75.6 -118.65 75.6 -118.5L75.6 -112.85Q75 -112.25 74.15 -112.25 72.8 -112.25 72.8 -113.85L72.8 -118.5Q72.8 -118.65 72.65 -118.65L71 -118.65Q70.85 -118.65 70.85 -118.5L70.85 -113.65Q70.85 -110.6 73.55 -110.6 74.9 -110.6 75.75 -111.4L75.9 -110.85Q75.9 -110.75 76.05 -110.75L77.5 -110.75Q77.65 -110.75 77.65 -110.85 77.55 -111.85 77.55 -112.5L77.55 -118.5M48.35 -102Q48.25 -102 48.25 -101.9L48.25 -91.6Q48.25 -91.5 48.4 -91.5L54.75 -91.5Q54.85 -91.5 54.9 -91.6L55.15 -93.1Q55.15 -93.25 55 -93.25L50.15 -93.25 50.15 -96 54.35 -96Q54.45 -96 54.45 -96.1L54.45 -97.6Q54.45 -97.75 54.35 -97.75L50.15 -97.75 50.15 -100.25 54.75 -100.25Q54.9 -100.25 54.85 -100.4L54.7 -101.9Q54.65 -102 54.55 -102L48.35 -102M51.9 -121.25Q51.8 -121.25 51.8 -121.1L51.8 -110.9Q51.8 -110.75 51.9 -110.75L54.9 -110.7Q57.2 -110.7 58.75 -112 60.55 -113.5 60.55 -116.2 60.55 -118.5 59.15 -119.85 57.65 -121.3 54.9 -121.3L51.9 -121.25M53.7 -119.6L54.9 -119.6Q56.6 -119.6 57.55 -118.75 58.6 -117.85 58.6 -116.15 58.6 -114.35 57.55 -113.35 56.55 -112.4 54.8 -112.4L53.7 -112.4 53.7 -119.6M33.7 -100.25L38.3 -100.25Q38.45 -100.25 38.4 -100.4L38.25 -101.9Q38.2 -102 38.1 -102L31.9 -102Q31.8 -102 31.8 -101.9L31.8 -91.6Q31.8 -91.5 31.95 -91.5L38.3 -91.5Q38.4 -91.5 38.45 -91.6L38.7 -93.1Q38.7 -93.25 38.55 -93.25L33.7 -93.25 33.7 -96 37.9 -96Q38 -96 38 -96.1L38 -97.6Q38 -97.75 37.9 -97.75L33.7 -97.75 33.7 -100.25M40.35 -102Q40.25 -102 40.25 -101.85L40.25 -91.65Q40.25 -91.5 40.4 -91.5L46.55 -91.5Q46.7 -91.5 46.7 -91.6L47 -93.15Q47 -93.25 46.85 -93.25L42.15 -93.25 42.15 -101.9Q42.15 -102 42.05 -102L40.35 -102M25.15 -99.3Q25.15 -100.45 26.95 -100.45 28.45 -100.45 29.4 -99.95 29.55 -99.85 29.55 -100L29.55 -101.55Q29.55 -101.7 29.45 -101.75 28.65 -102.15 27 -102.15 25.25 -102.15 24.2 -101.3 23.3 -100.5 23.3 -99.15 23.3 -98.15 23.8 -97.5 24.35 -96.7 25.75 -96.1L26.5 -95.8Q28.1 -95.15 28.1 -94.25 28.1 -93.05 26.25 -93.05 24.7 -93.05 23.4 -93.9 23.3 -93.95 23.3 -93.8L23.3 -92.15Q23.3 -92 23.4 -91.9 24.45 -91.35 26.2 -91.35 28 -91.35 29.05 -92.2 30.1 -93 30.1 -94.45 30.1 -95.45 29.5 -96.15 28.9 -96.95 27.4 -97.55L26.8 -97.8Q25.85 -98.2 25.5 -98.55 25.15 -98.9 25.15 -99.3M159.6 -99.3Q159.55 -99.4 159.45 -99.4L157.95 -99.4Q157.8 -99.4 157.85 -99.25L157.9 -91.65Q157.9 -91.5 158.05 -91.5L159.7 -91.5Q159.85 -91.5 159.85 -91.6L159.85 -97.25Q160.55 -97.85 161.35 -97.85 162.7 -97.85 162.7 -96.3L162.7 -91.65Q162.7 -91.5 162.85 -91.5L164.5 -91.5Q164.65 -91.5 164.65 -91.6L164.6 -97.25Q165.25 -97.9 166.15 -97.9 167.5 -97.9 167.5 -96.25L167.5 -91.65Q167.5 -91.5 167.65 -91.5L169.3 -91.5Q169.45 -91.5 169.45 -91.6L169.45 -96.45Q169.45 -98.1 168.55 -98.9 167.9 -99.55 166.7 -99.55 165.35 -99.55 164.1 -98.5 163.45 -99.55 162.05 -99.55 160.75 -99.55 159.7 -98.65L159.6 -99.3M145.85 -102.9Q145.7 -102.9 145.7 -102.75L145.7 -93.4Q145.7 -91.35 147.55 -91.35 148.2 -91.35 148.45 -91.45 148.6 -91.5 148.6 -91.65L148.6 -92.85Q148.6 -92.95 148.5 -92.95L148.2 -92.9Q147.65 -92.9 147.65 -93.6L147.65 -102.75Q147.65 -102.9 147.5 -102.9L145.85 -102.9M153.1 -118.65Q152.95 -118.65 152.95 -118.5L152.95 -110.9Q152.95 -110.75 153.1 -110.75L154.75 -110.75Q154.9 -110.75 154.9 -110.85L154.9 -118.5Q154.9 -118.65 154.8 -118.65L153.1 -118.65M155.05 -120.8Q155.05 -121.3 154.75 -121.6 154.45 -121.9 153.95 -121.9 153.45 -121.9 153.15 -121.6 152.85 -121.3 152.85 -120.8 152.85 -120.3 153.15 -120 153.45 -119.7 153.95 -119.7 154.45 -119.7 154.75 -120 155.05 -120.3 155.05 -120.8M161.25 -122.15Q161.1 -122.15 161.1 -122L161.1 -112.65Q161.1 -110.6 162.95 -110.6 163.6 -110.6 163.85 -110.7 164 -110.75 164 -110.9L164 -112.1Q164 -112.2 163.9 -112.2L163.6 -112.15Q163.05 -112.15 163.05 -112.85L163.05 -122Q163.05 -122.15 162.9 -122.15L161.25 -122.15M158.7 -122.15L157.05 -122.15Q156.9 -122.15 156.9 -122L156.9 -112.65Q156.9 -110.6 158.75 -110.6 159.4 -110.6 159.65 -110.7 159.8 -110.75 159.8 -110.9L159.8 -112.1Q159.8 -112.2 159.7 -112.2L159.4 -112.15Q158.85 -112.15 158.85 -112.85L158.85 -122Q158.85 -122.15 158.7 -122.15M130.25 -102.9Q130.15 -102.9 130.15 -102.8L130.15 -99.5 129.45 -99.55Q127.4 -99.55 126.15 -98.35 124.9 -97.15 124.9 -95.35 124.9 -93.45 126.1 -92.35 127.2 -91.35 129 -91.35 130.6 -91.35 132.05 -91.95 132.15 -92 132.15 -92.1L132.05 -93.15 132.05 -102.8Q132.05 -102.9 132 -102.9L130.25 -102.9M130.15 -97.8L130.15 -93.15Q129.75 -93 129.2 -93 128.2 -93 127.6 -93.6 126.9 -94.25 126.9 -95.45 126.9 -96.6 127.6 -97.3 128.3 -97.95 129.4 -97.95 129.85 -97.95 130.15 -97.8M128.1 -118.6Q127.6 -118.8 126.6 -118.8 124.65 -118.8 123.4 -117.6 122.2 -116.45 122.2 -114.65 122.2 -112.9 123.3 -111.75 124.45 -110.6 126.35 -110.6 127.5 -110.6 128.1 -110.85 128.2 -110.85 128.2 -111L128.2 -112.4Q128.2 -112.5 128.1 -112.5 127.65 -112.3 126.7 -112.3 125.65 -112.3 125 -112.85 124.2 -113.5 124.2 -114.75 124.2 -115.85 124.9 -116.5 125.55 -117.15 126.7 -117.15 127.5 -117.15 128.05 -116.95 128.2 -116.9 128.2 -117L128.2 -118.45Q128.2 -118.6 128.1 -118.6M140.4 -118.65Q140.25 -118.65 140.3 -118.5L142.4 -110.85Q142.45 -110.75 142.6 -110.75L144.35 -110.75Q144.5 -110.75 144.5 -110.85 145.5 -114.4 146.05 -116.65 146.55 -114.15 147.4 -110.9 147.45 -110.75 147.6 -110.75L149.35 -110.75Q149.45 -110.75 149.55 -110.85L151.8 -118.5Q151.85 -118.65 151.7 -118.65L150.1 -118.65Q150 -118.65 149.95 -118.55 149.35 -116.25 148.6 -112.55L148.55 -112.55Q147.95 -115.75 147.2 -118.55 147.2 -118.65 147.1 -118.65L145.25 -118.65Q145.15 -118.65 145.1 -118.5 144.45 -116 143.65 -112.6L143.6 -112.6Q143.2 -115.1 142.3 -118.55 142.3 -118.65 142.2 -118.65L140.4 -118.65M134.6 -118.65Q134.45 -118.65 134.4 -118.55L131.5 -115.25 131.5 -122Q131.5 -122.15 131.35 -122.15L129.7 -122.15Q129.55 -122.15 129.55 -122L129.55 -110.9Q129.55 -110.75 129.7 -110.75L131.35 -110.75Q131.5 -110.75 131.5 -110.9L131.5 -114.4 134.45 -110.85Q134.55 -110.75 134.65 -110.75L136.85 -110.75Q137.05 -110.75 136.9 -110.9L133.3 -115.05 133.3 -115.1Q135.95 -117.9 136.45 -118.5 136.6 -118.65 136.4 -118.65L134.6 -118.65M111.6 -99.4Q111.45 -99.4 111.45 -99.25L111.45 -97.9Q111.45 -97.8 111.6 -97.75L112.6 -97.75 112.6 -93.55Q112.6 -91.35 114.7 -91.35 115.45 -91.35 116.05 -91.55 116.15 -91.6 116.15 -91.75L116.15 -92.9Q116.15 -93.05 116.05 -93L115.45 -92.95Q114.5 -92.95 114.5 -94L114.5 -97.75 116.1 -97.75Q116.2 -97.75 116.2 -97.9L116.2 -99.25Q116.2 -99.4 116.1 -99.4L114.55 -99.4 114.6 -101.65Q114.6 -101.75 114.5 -101.75L112.9 -101.5Q112.8 -101.5 112.75 -101.35 112.65 -100.75 112.6 -99.4L111.6 -99.4M110.55 -99.05Q110.55 -99.15 110.45 -99.25 109.8 -99.55 108.45 -99.55 107 -99.55 106.2 -98.85 105.45 -98.15 105.45 -97.2 105.45 -96.3 106 -95.75 106.5 -95.15 107.8 -94.7 109.1 -94.15 109.1 -93.6 109.1 -92.9 107.9 -92.9 106.6 -92.9 105.6 -93.55 105.45 -93.6 105.45 -93.5L105.45 -91.95Q105.45 -91.85 105.6 -91.8 106.35 -91.35 107.85 -91.35 109.3 -91.35 110.15 -92 111 -92.65 111 -93.8 111 -94.65 110.45 -95.25 109.9 -95.8 108.55 -96.3 107.25 -96.8 107.25 -97.3 107.25 -98 108.4 -98 109.55 -98 110.4 -97.55 110.55 -97.5 110.55 -97.6L110.55 -99.05M116.35 -122.15L114.7 -122.15Q114.55 -122.15 114.55 -122L114.55 -112.65Q114.55 -110.6 116.4 -110.6 117.05 -110.6 117.3 -110.7 117.45 -110.75 117.45 -110.9L117.45 -112.1Q117.45 -112.2 117.35 -112.2L117.05 -112.15Q116.5 -112.15 116.5 -112.85L116.5 -122Q116.5 -122.15 116.35 -122.15M113 -119.35Q113.15 -119.3 113.15 -119.45L113.15 -121Q113.15 -121.1 113.05 -121.15 112.4 -121.4 110.95 -121.4 108.35 -121.4 106.8 -119.9 105.25 -118.4 105.25 -116 105.25 -113.35 106.85 -111.9 108.35 -110.6 110.7 -110.6 112.15 -110.6 112.9 -110.85 113.05 -110.9 113.05 -111.1L113.05 -112.5Q113.05 -112.65 112.9 -112.6 112.15 -112.3 110.95 -112.3 109.5 -112.3 108.45 -113.15 107.25 -114.15 107.25 -116.05 107.25 -117.7 108.25 -118.7 109.25 -119.7 110.9 -119.7 112.25 -119.7 113 -119.35M118.9 -118.65Q118.75 -118.65 118.75 -118.5L118.75 -110.9Q118.75 -110.75 118.9 -110.75L120.55 -110.75Q120.7 -110.75 120.7 -110.85L120.7 -118.5Q120.7 -118.65 120.6 -118.65L118.9 -118.65M120.85 -120.8Q120.85 -121.3 120.55 -121.6 120.25 -121.9 119.75 -121.9 119.25 -121.9 118.95 -121.6 118.65 -121.3 118.65 -120.8 118.65 -120.3 118.95 -120 119.25 -119.7 119.75 -119.7 120.25 -119.7 120.55 -120 120.85 -120.3 120.85 -120.8M90.9 -99.25Q90.85 -99.4 90.7 -99.4L89.25 -99.4Q89.15 -99.4 89.15 -99.25L89.2 -91.6Q89.2 -91.5 89.35 -91.5L91 -91.5Q91.15 -91.5 91.15 -91.6L91.15 -97.2Q91.75 -97.85 92.7 -97.85 94.1 -97.85 94.1 -96.2L94.1 -91.65Q94.1 -91.5 94.2 -91.5L95.9 -91.5Q96 -91.5 96 -91.65L96 -96.4Q96 -98.1 95.1 -98.9 94.45 -99.55 93.35 -99.55 92.05 -99.55 91 -98.65L90.9 -99.25M81.5 -122Q81.5 -122.15 81.35 -122.15L79.65 -122.15Q79.55 -122.15 79.55 -122.05L79.55 -111.1Q79.55 -110.95 79.65 -110.95 80.8 -110.6 82.05 -110.6 84 -110.6 85.3 -111.7 86.75 -112.9 86.75 -115 86.75 -116.65 85.7 -117.7 84.65 -118.8 82.95 -118.8 82.2 -118.8 81.5 -118.55L81.5 -122M84.8 -114.85Q84.8 -113.55 84 -112.85 83.3 -112.2 82.25 -112.2 81.8 -112.2 81.5 -112.3L81.5 -117Q82 -117.15 82.65 -117.15 83.6 -117.15 84.2 -116.55 84.8 -115.95 84.8 -114.85M90.2 -122Q90.2 -122.15 90.05 -122.15L88.4 -122.15Q88.25 -122.15 88.25 -122L88.25 -112.65Q88.25 -110.6 90.1 -110.6 90.75 -110.6 91 -110.7 91.15 -110.75 91.15 -110.9L91.15 -112.1Q91.15 -112.2 91.05 -112.2L90.75 -112.15Q90.2 -112.15 90.2 -112.85L90.2 -122M100.2 -115.7Q100.1 -115.7 100.1 -115.6L100.1 -114.1Q100.1 -114 100.2 -114L103.95 -114Q104.05 -114 104.05 -114.1L104.05 -115.6Q104.05 -115.7 103.95 -115.7L100.2 -115.7M94.55 -112.85Q93.95 -113.35 93.9 -114.25L97.15 -114.25Q98.5 -114.25 98.8 -114.3 98.9 -114.35 98.95 -114.45 99 -114.65 99 -115.4 99 -116.75 98.25 -117.7 97.35 -118.8 95.7 -118.8 94 -118.8 92.95 -117.55 91.95 -116.35 91.95 -114.6 91.95 -112.95 92.85 -111.85 93.9 -110.6 95.9 -110.6 97.35 -110.6 98.3 -111.05 98.4 -111.1 98.4 -111.25L98.4 -112.55Q98.4 -112.7 98.3 -112.6 97.4 -112.25 96.35 -112.25 95.15 -112.25 94.55 -112.85M93.9 -115.65Q94.2 -117.25 95.65 -117.25 96.45 -117.25 96.85 -116.7 97.2 -116.25 97.2 -115.75L97.2 -115.65 93.9 -115.65Z"/><path fill="#FFF" stroke="none" d="M99.5 -78.05Q91.25 -78.05 85.5 -72.15 79.75 -66.15 79.75 -57.75 79.75 -49.35 85.5 -43.4L99.4 -29.2Q105.15 -23.3 113.4 -23.3 119.75 -23.3 124.65 -26.85 126.1 -27.9 127.4 -29.2 133.25 -35.15 133.25 -43.55 133.25 -51.95 127.4 -57.9L113.5 -72.15Q107.75 -78.05 99.5 -78.05Z"/><path id="Layer4_0_1_STROKES" stroke="#273C4F" stroke-width="3.95" stroke-linejoin="miter" stroke-linecap="butt" stroke-miterlimit="4" fill="none" d="M85.1 -72.1Q90.7 -77.7 98.6 -77.7 106.6 -77.7 112.15 -72.1L127.2 -57Q132.85 -51.45 132.85 -43.5 132.85 -35.6 127.2 -30 126.55 -29.35 125.9 -28.8 120.75 -24.4 113.7 -24.4 105.75 -24.4 100.15 -30L85.1 -45Q79.5 -50.65 79.5 -58.55 79.5 -66.5 85.1 -72.1Z"/><g display="none" id="Layer3_0_FILL"><path fill="#0F0" stroke="none" d="M102.2 -54.5L86.2 -69.9Q80.3 -62.75 82.3 -54.5 82.85 -51.9 84.2 -49.5 84.9 -48.35 85.75 -47.55L88.8 -44.5Q91.4 -41.6 91.75 -42 92.1 -42.45 96.3 -46.25 100.4 -50.05 102.2 -54.5Z"/><animate attributeName="display" repeatCount="indefinite" dur="1.367s" keyTimes="0;.512;.61;1" values="none;inline;none;none"/></g><g display="none" id="Layer2_0_FILL"><path fill="#0F0" stroke="none" d="M82.3 -54.55Q82.85 -51.95 84.2 -49.55 84.9 -48.4 85.75 -47.6L88.8 -44.55Q91.4 -41.65 91.75 -42.05 92.1 -42.5 96.3 -46.3 100.4 -50.1 102.2 -54.55L86.2 -69.95Q80.3 -62.8 82.3 -54.55Z"/><animate attributeName="display" repeatCount="indefinite" dur="1.367s" keyTimes="0;.341;.439;1" values="none;inline;none;none"/></g><g transform="matrix(.592 .592 -.592 .592 39.1 -56.3)" id="Layer1_0_FILL"><path fill="#273B50" stroke="none" d="M50.3 -56.7L43.4 -56.7Q41.55 -56.7 40.2 -55.4 38.9 -54.05 38.9 -52.2 38.9 -50.35 40.2 -49.05 41.55 -47.7 43.4 -47.7L50.3 -47.7Q52.15 -47.7 53.45 -49.05 54.8 -50.35 54.8 -52.2 54.8 -54.05 53.45 -55.4 52.15 -56.7 50.3 -56.7Z"/></g></g></g></svg>