<svg xmlns="http://www.w3.org/2000/svg" width="22.24" height="22.24" viewBox="0 0 22.24 22.24">
  <path id="Path_579334" data-name="Path 579334" d="M12.12,1A11.12,11.12,0,1,0,23.24,12.12,11.12,11.12,0,0,0,12.12,1Zm.033,18.679a1.87,1.87,0,0,1-.161-3.736q.081,0,.161,0a1.821,1.821,0,0,1,1.942,1.691q.006.082,0,.165a1.794,1.794,0,0,1-1.946,1.88Zm2.478-8.908-.139.146c-.548.576-1.17,1.229-1.17,1.634a1.926,1.926,0,0,0,.25.937l.1.193-.079.3a.429.429,0,0,1-.394.263H11.335a.6.6,0,0,1-.452-.163,2.857,2.857,0,0,1-.587-1.755,4.252,4.252,0,0,1,1.546-2.884c.139-.152.271-.292.4-.423.437-.452.7-.744.7-1.053,0-.214,0-.865-1.241-.865a4.113,4.113,0,0,0-2.2.639.411.411,0,0,1-.454-.014L8.891,7.6,8.853,7.3V5.28a.611.611,0,0,1,.273-.569,5.751,5.751,0,0,1,2.988-.764,3.545,3.545,0,0,1,3.822,3.664,4.261,4.261,0,0,1-1.306,3.159Z" transform="translate(-1 -1)" fill="#d1d1d1"/>
</svg>
