<svg viewBox="0 0 18 18"
    xmlns="http://www.w3.org/2000/svg">
    <path d="M2.35255 7.26367C2.35255 7.00683 2.36427 6.74707 2.38868 6.48828L1.14356 6.37305C1.11622 6.6709 1.10254 6.96778 1.10254 7.26367C1.10254 7.57324 1.11768 7.88281 1.14697 8.18945L2.39111 8.07031C2.36572 7.80273 2.35255 7.53418 2.35255 7.26367Z"/>
    <path d="M2.68946 9.62305L1.48926 9.97266C1.65772 10.5527 1.88184 11.1211 2.15528 11.6611L3.27051 11.0967C3.03223 10.626 2.83692 10.1299 2.68946 9.62305Z"/>
    <path d="M14.2905 10.416L15.4614 9.97852C15.3052 9.56055 15.0972 9.16211 14.8437 8.79688C14.7358 8.64063 14.5684 8.48731 14.3018 8.29883L13.5811 9.32031C13.7646 9.45019 13.8159 9.50879 13.8164 9.50879C14.0112 9.78906 14.1704 10.0947 14.2905 10.416Z"/>
    <path d="M4.11328 12.4355L3.12207 13.1973C3.49023 13.6768 3.90576 14.125 4.35693 14.5273L5.18896 13.5938C4.79638 13.2441 4.43457 12.8545 4.11328 12.4355Z"/>
    <path d="M2.85303 4.40235C2.9585 4.1084 3.10303 3.83008 3.28223 3.57325L2.25879 2.85645C2.01514 3.20313 1.81934 3.58204 1.67627 3.98047C1.60352 4.18359 1.53857 4.38574 1.48047 4.58985L2.68262 4.93165C2.73291 4.75489 2.79004 4.57813 2.85303 4.40235Z"/>
    <path d="M7.05176 2.30371C7.51807 2.47461 7.9419 2.72559 8.3125 3.04785L9.13379 2.10644C8.64795 1.68261 8.09229 1.35351 7.48242 1.12988L7.05176 2.30371Z"/>
    <path d="M12.3252 15.4072L12.876 16.5303C13.4629 16.2422 13.9819 15.8574 14.418 15.3857L13.501 14.5361C13.1694 14.8945 12.7739 15.1875 12.3252 15.4072Z"/>
    <path d="M14.5464 11.8584C14.5425 12.3506 14.4492 12.835 14.2695 13.2998L15.4346 13.751C15.6694 13.1455 15.791 12.5117 15.7964 11.8682L14.5464 11.8584Z"/>
    <path d="M9.42481 15.7354L9.14258 16.9522C9.55713 17.0488 9.98487 17.0977 10.4136 17.0977C10.6245 17.0977 10.8345 17.0859 11.043 17.0625L10.9053 15.8203C10.4141 15.875 9.90723 15.8467 9.42481 15.7354Z"/>
    <path d="M5.81934 15.6035C6.33789 15.9141 6.88868 16.1787 7.45606 16.3877L7.88965 15.2158C7.39453 15.0322 6.91455 14.8027 6.46289 14.5312L5.81934 15.6035Z"/>
    <path d="M3.67383 1.52441L4.32715 2.59082C4.73926 2.33789 5.20117 2.17773 5.66358 2.12598L5.52588 0.883789C4.88233 0.955079 4.2417 1.17676 3.67383 1.52441Z"/>
    <path d="M10.5399 6.6123L10.5913 8.03377C10.606 8.43799 10.8303 8.80535 11.1832 9.00302L12.4241 9.69813L11.0027 9.74954C10.5984 9.76416 10.2311 9.98845 10.0334 10.3414L9.33829 11.5823L9.28689 10.1609C9.27227 9.75665 9.04797 9.38928 8.69507 9.19161L7.4541 8.49649L8.87556 8.44509C9.27978 8.43047 9.64714 8.20617 9.84481 7.85327L10.5399 6.6123Z"/>
    <path d="M13.9444 1.04785L14.0152 3.04244C14.0353 3.60964 14.3441 4.12512 14.8299 4.40249L16.5383 5.37788L14.5814 5.45C14.025 5.47051 13.5192 5.78525 13.2471 6.28043L12.2902 8.02175L12.2194 6.02716C12.1993 5.45996 11.8905 4.94448 11.4047 4.66711L9.69629 3.69172L11.6531 3.6196C12.2096 3.59909 12.7153 3.28435 12.9875 2.78917L13.9444 1.04785Z"/>
</svg>
