<svg xmlns="http://www.w3.org/2000/svg" xmlns:xlink="http://www.w3.org/1999/xlink" width="57.563" height="57.563" viewBox="0 0 57.563 57.563">
  <defs>
    <clipPath id="clip-path">
      <path id="Path_579349" data-name="Path 579349" d="M21.681-6.885a27.753,27.753,0,0,0-8.433-20.369A27.719,27.719,0,0,0-7.1-35.667a27.763,27.763,0,0,0-20.348,8.413A27.753,27.753,0,0,0-35.882-6.885a27.661,27.661,0,0,0,8.433,20.327A27.7,27.7,0,0,0-7.1,21.9a27.651,27.651,0,0,0,20.348-8.454A27.661,27.661,0,0,0,21.681-6.885Z" transform="translate(67.781 0.368) rotate(-45)" fill="#121212"/>
    </clipPath>
    <linearGradient id="linear-gradient" y1="0.5" x2="1.008" y2="0.5" gradientUnits="objectBoundingBox">
      <stop offset="0" stop-color="#ffaa9e"/>
      <stop offset="0.145" stop-color="#ffde9f"/>
      <stop offset="0.318" stop-color="#54cdc4"/>
      <stop offset="0.478" stop-color="#49004a"/>
      <stop offset="0.667" stop-color="#ff6a6b"/>
      <stop offset="0.824" stop-color="#5defe1"/>
      <stop offset="1" stop-color="#a782cc"/>
    </linearGradient>
    <linearGradient id="linear-gradient-2" x1="0.98" y1="0.037" x2="0.08" y2="0.955" gradientUnits="objectBoundingBox">
      <stop offset="0" stop-color="#a781cc"/>
      <stop offset="0.153" stop-color="#8bb8da"/>
      <stop offset="0.314" stop-color="#57e8e4"/>
      <stop offset="0.51" stop-color="#c9ccb2"/>
      <stop offset="0.686" stop-color="#fe7a75"/>
      <stop offset="0.851" stop-color="#d2475b"/>
      <stop offset="1" stop-color="#870a4d"/>
    </linearGradient>
  </defs>
  <g id="S-processing" transform="translate(39.73 39.516)">
    <g id="Group_141584" data-name="Group 141584">
      <g id="Mask_Group_1" data-name="Mask Group 1" transform="translate(-51.517 -52.037) rotate(45)" clip-path="url(#clip-path)">
        <path id="Path_579346" data-name="Path 579346" d="M88.269-29.708H29.287V29.708H88.269Z" transform="translate(-1.302 0.52)" fill="url(#linear-gradient)"/>
      </g>
    </g>
    <path id="Path_579347" data-name="Path 579347" d="M13.983-10.734A24.041,24.041,0,0,0,6.677-28.379,24.012,24.012,0,0,0-10.95-35.667a24.05,24.05,0,0,0-17.627,7.288,24.041,24.041,0,0,0-7.306,17.645A23.961,23.961,0,0,0-28.576,6.875,23.991,23.991,0,0,0-10.95,14.2,23.953,23.953,0,0,0,6.677,6.875,23.961,23.961,0,0,0,13.983-10.734Z" fill="#121212"/>
    <path id="Path_579348" data-name="Path 579348" d="M1.705-17.9l-.036-6.642-21.737.251a3.773,3.773,0,0,0-1.777,1.274,4.372,4.372,0,0,0-.969,1.9q-.305,1.31.251,11.219a3.217,3.217,0,0,0,1.113,1.9,7.81,7.81,0,0,0,2.926,1.741,5.028,5.028,0,0,0-2.459.951A3.247,3.247,0,0,0-22.33-3.446a25.173,25.173,0,0,0,.144,6.211q.359,1.633,2.405,1.615l18.094-.251A4.4,4.4,0,0,0,.323,3.052,2.943,2.943,0,0,0,1.257.844V-10.07A4.718,4.718,0,0,0-.09-12.906a5.131,5.131,0,0,0-3.069-1.813A5.916,5.916,0,0,0,.108-15.94,3.976,3.976,0,0,0,1.705-17.9Z" fill="url(#linear-gradient-2)"/>
  </g>
</svg>
